/* XPM */
static char *crabhouse__1___1_1653757835[] = {
/* columns rows colors chars-per-pixel */
"64 64 249 2 ",
"   c #020615",
".  c #02031D",
"X  c #040A1B",
"o  c #090B1B",
"O  c #100C1C",
"+  c #14141A",
"@  c #34281A",
"#  c #020524",
"$  c #050B24",
"%  c #02062B",
"&  c #040A2C",
"*  c #090E28",
"=  c #051223",
"-  c #0A1223",
";  c #07152C",
":  c #0C142C",
">  c #0C1B2D",
",  c #141A2B",
"<  c #030633",
"1  c #050B33",
"2  c #0A0E34",
"3  c #040A39",
"4  c #050C3B",
"5  c #061235",
"6  c #0B1434",
"7  c #0B1C34",
"8  c #06133C",
"9  c #0B143C",
"0  c #0C1B3D",
"q  c #111437",
"w  c #121A33",
"e  c #131C3C",
"r  c #1C242D",
"t  c #0D2232",
"y  c #0D2836",
"u  c #0D233B",
"i  c #162636",
"p  c #13213D",
"a  c #132A3C",
"s  c #222736",
"d  c #2A3339",
"f  c #33373A",
"g  c #5F3F0E",
"h  c #4B3517",
"j  c #533C18",
"k  c #49382B",
"l  c #3A403D",
"z  c #5C410F",
"x  c #5E4216",
"c  c #65450E",
"v  c #654413",
"b  c #6B4C14",
"n  c #684B1A",
"m  c #6E5119",
"M  c #715216",
"N  c #73551B",
"B  c #544B38",
"V  c #6B5122",
"C  c #745925",
"Z  c #755D30",
"A  c #050C43",
"S  c #050A49",
"D  c #071342",
"F  c #0A1444",
"G  c #0C1B43",
"H  c #07144B",
"J  c #0A154C",
"K  c #0C1B4B",
"L  c #121C43",
"P  c #101C4C",
"I  c #060E59",
"U  c #0A1453",
"Y  c #091854",
"T  c #0B145C",
"R  c #131D57",
"E  c #0E2347",
"W  c #142344",
"Q  c #132B43",
"!  c #13234C",
"~  c #192949",
"^  c #183649",
"/  c #0E2452",
"(  c #0F255B",
")  c #142453",
"_  c #1B2D54",
"`  c #152859",
"'  c #1C2B5C",
"]  c #1A3457",
"[  c #262B47",
"{  c #28374C",
"}  c #3A3B46",
"|  c #2D3255",
" . c #243858",
".. c #0C1965",
"X. c #111A67",
"o. c #0E246C",
"O. c #132264",
"+. c #172968",
"@. c #1B3468",
"#. c #172877",
"$. c #1C2C74",
"%. c #1C3377",
"&. c #1D3B74",
"*. c #23346D",
"=. c #263968",
"-. c #223573",
";. c #253276",
":. c #253A7A",
">. c #423C48",
",. c #403653",
"<. c #19454E",
"1. c #1D4357",
"2. c #384548",
"3. c #274359",
"4. c #3B4A58",
"5. c #1D426D",
"6. c #2A4669",
"7. c #354867",
"8. c #2D546E",
"9. c #2C4B73",
"0. c #274478",
"q. c #334C71",
"w. c #334D7C",
"e. c #384A78",
"r. c #395678",
"t. c #396B7C",
"y. c #4C4843",
"u. c #565348",
"i. c #484857",
"p. c #48545B",
"a. c #555452",
"s. c #635E5C",
"d. c #5D6158",
"f. c #6A6657",
"g. c #706F5B",
"h. c #535665",
"j. c #445B79",
"k. c #47627A",
"l. c #586F79",
"z. c #666667",
"x. c #787769",
"c. c #6D6D72",
"v. c #7C7A73",
"b. c #836F37",
"n. c #8C764C",
"m. c #817C74",
"M. c #878675",
"N. c #928A76",
"B. c #9B957B",
"V. c #A9976C",
"C. c #A69B76",
"Z. c #172A82",
"A. c #273884",
"S. c #2A4584",
"D. c #354D83",
"F. c #344A8B",
"G. c #2E5585",
"H. c #385888",
"J. c #374C93",
"K. c #3A5695",
"L. c #3C5B93",
"P. c #396489",
"I. c #3C6493",
"U. c #3D6696",
"Y. c #435A89",
"T. c #495991",
"R. c #436386",
"E. c #476789",
"W. c #44698C",
"Q. c #4A6D8C",
"!. c #566885",
"~. c #4E738B",
"^. c #53758C",
"/. c #436494",
"(. c #436C94",
"). c #4A6B96",
"_. c #44669B",
"`. c #466E9D",
"'. c #556B96",
"]. c #457296",
"[. c #4C7494",
"{. c #4B749C",
"}. c #4D7A9B",
"|. c #567694",
" X c #5B7C95",
".X c #52729A",
"XX c #547C9C",
"oX c #5C7D9D",
"OX c #667A8C",
"+X c #637C94",
"@X c #4A6DA1",
"#X c #5369A4",
"$X c #4F76A1",
"%X c #567AA2",
"&X c #6579A6",
"*X c #707FA8",
"=X c #58868A",
"-X c #56829D",
";X c #5B829D",
":X c #688789",
">X c #64849D",
",X c #5982A2",
"<X c #5E98A9",
"1X c #6687A6",
"2X c #6F93AB",
"3X c #7697AA",
"4X c #6CA6AA",
"5X c #7DA8AA",
"6X c #8F8F89",
"7X c #999583",
"8X c #A49C85",
"9X c #A9A68A",
"0X c #B5AB89",
"qX c #AAA793",
"wX c #B7AF90",
"eX c #B8B193",
"rX c #86A7AC",
"tX c #C4BB96",
"yX c #CCC299",
"uX c #D6C99A",
"iX c #E4D39D",
"pX c #F4E39F",
"aX c #C8C4AA",
"sX c #DACEA4",
"dX c #DDD2A7",
"fX c #E6D9A8",
"gX c #F3DFA4",
"hX c #EFE1A4",
"jX c #EEE2AE",
"kX c #F5E3A6",
"lX c #F5E4AB",
"zX c #F8E5AA",
"xX c #F6E8AF",
"cX c #F8E8AC",
"vX c #EEE2B2",
"bX c #F4E6B2",
"nX c #F7E6B5",
"mX c #F6E9B4",
"MX c #F9EAB4",
"NX c #F6EABB",
"BX c #F9ECBD",
"VX c #F6ECC1",
"CX c #FAEEC3",
"ZX c #F9EDC8",
"AX c #F6F0C5",
"SX c #FBF0C5",
"DX c #FCF2CB",
"FX c #FCF4D1",
"GX c #FFF8D2",
/* pixels */
"mXmXmXMXmXbXmXmXmXmXmXxXMXmXMXmXMXmXmXmXmXmXMXmXMXmXMXBXjXsXeXsXxXMXmXBXMXBXxXxXmXmXmXNXMXmXmXmXmXNXmXbXmXmXmXBXmXmXmXmXmXmXmXmX",
"mXMXMXNXmXmXbXmXmXmXmXmXMXmXMXmXmXNXmXbXmXbXMXMXnXsXwXM.z.p.4.p.x.7XeXqX9XeXhXMXMXmXMXmXmXmXbXmXmXmXmXmXmXmXmXmXmXmXmXmXmXmXmXmX",
"mXmXmXmXmXmXmXmXmXmXmXmXmXmXmXmXmXMXMXmXbXnXvXtXx.} i ~ k.^.^.^.P.P.t.8.r.4.p.M.yXjXmXMXMXmXmXmXBXmXmXmXmXmXmXbXmXbXmXmXmXmXmXmX",
"mXbXmXbXmXmXmXmXNXmXNXNXmXmXmXmXmXMXmXNXmXMX0Xi . & 6 ~ k.].-X,XU.U.].G.G.H.` E r N.MXmXmXmXmXmXmXmXMXmXmXmXmXmXmXmXbXmXBXmXmXmX",
"mXmXmXbXmXmXmXNXBXAXZXCXSXCXSXSXCXBXMXmXBXnXm.2 1 1 8 6.E.W.(.,XU.I.U.G.9.9.) 0 = u.xXmXmXNXnXmXmXmXmXmXNXmXbXmXxXbXmXmXmXmXmXmX",
"mXmXmXmXNXNXAXFXDXDXDXZXVXVXBXCXCXCXDXZXBXnXc.2 4 4 8 6.|.W.I.U.}.}.$XH.0.=._ 5 - f fXMXmXmXvXNXBXBXZXVXVXVXVXNXmXmXmXmXxXmXmXmX",
"bXmXNXVXAXDXFXFXDXNXlXlXlXkXlXlXgXnXVXZXSXCXh.3 & 1 0 q.;X[.].{.-X}.{.G.&.=._ 6 ; r yXmXmXNXVXSXDXSXVXBXCXCXZXDXAXAXNXNXmXmXmXmX",
"NXVXAXFXFXDXDXNXbXjXkXkXkXkXkXkXkXkXlXjXVXVXi.% 1 # 0 9.^.^.}.,X,XU.U.G.0.=. .7 $ - 9XSXSXDXDXCXmXlXxXjXlXxXxXbXBXDXFXAXAXVXVXBX",
"FXFXFXFXDXBXbXgXkXhXlXkXkXkXkXlXlXkXgXkXlXsX[ # & & u ] k.;X,X,X,XU.-XU.G.w.7.w # & M.DXDXCXnXlXzXkXkXgXkXzXlXlXjXmXBXFXFXFXFXFX",
"FXSXCXmXbXlXkXkXkXlXkXzXkXkXkXkXkXkXkXkXzXtXs # & & G @.P.2X;X-X,X-X-X$XH.L.q.e & % f.BXnXlXlXkXgXzXlXzXzXkXkXkXkXzXlXbXNXAXAXDX",
"nXbXlXlXkXkXkXkXkXkXlXcXzXzXzXzXzXlXkXkXzX0X, # # & p 6.t.oX}.U.U.U.U.`.@X/.e.P 4 & } fXlXkXzXzXzXzXlXzXlXkXkXzXkXkXkXkXxXlXmXmX",
"zXkXkXgXkXlXlXlXcXcXxXxXMXMXxXxXlXxXzXzXzXC.2 # . # G q.H.I.P.U.I.`.`.U.L.Y.j.R 4 & s uXkXlXlXlXbXgXzXbXzXzXzXzXlXlXzXkXkXkXkXkX",
"kXkXgXkXlXlXlXlXxXxXmXMXxXMXxXMXMXMXlXzXzXm.% . . % / 9.w.P.G.P.U.-XU.G.G.J.D.' F 6 , 0XMXcXlXmXnXlXxXMXMXMXMXxXlXlXlXzXkXkXkXkX",
"lXkXlXlXlXxXbXbXMXxXmXmXMXmXmXMXmXMXMXmXbXs.# % # 5 ! 9.H.P.I.I.,XU.K.L.H.L.T.*.L , O B.MXMXmXmXMXnXxXmXmXmXmXxXmXmXlXlXlXlXkXhX",
"lXlXlXxXlXmXmXbXbXmXMXmXmXmXmXmXMXmXnXnXfX} & # 5 G / 8.P.P.P.].}.`.U.U..X'.j.*.) L - g.MXmXmXNXmXMXMXmXmXMXmXmXbXmXmXlXxXzXjXlX",
"lXbXlXbXmXmXbXmXmXMXmXmXMXmXbXxXnXMXMXBXtX[ # # G ` +.5.P.}.[.}.}.}.,X`.)..XY.' F 2 * u.lXmXmXMXmXmXmXMXmXmXmXmXmXbXbXmXbXbXlXxX",
"mXmXbXmXmXmXmXmXMXmXmXmXBXmXMXmXmXmXmXBXwX6 . # 8 / @.9.P.-X-XP.(.%X%X/.L.T.D.*.G 5 o f dXmXmXbXmXnXmXmXBXmXmXmXmXmXmXmXmXMXMXMX",
"NXmXmXmXmXmXmXmXNXmXMXmXmXMXMXNXmXxXmXmXB.$ . # 4 F / 6.t.k.j.6.H.Y.J.J.A.;.=.' R 5 * , yXmXxXbXmXmXmXmXmXmXmXmXmXmXmXmXmXNXmXmX",
"mXMXmXbXmXMXmXNXmXMXmXMXmXMXmXmXmXmXmXmXx.# # & G 0 * i Q { { 9.T.*X3X*X&XT.T.Y.e.6._ i x.bXmXmXmXmXmXmXMXMXMXmXmXmXmXmXMXmXmXmX",
"mXmXmXmXmXmXmXmXmXMXmXmXmXmXmXMXmXmXmXmXs.# # ; 5 9 : _ =.6.r.k.Q.+XoX'.|.H.9.9.q. . .a s yXBXNXmXmXmXmXMXMXMXmXmXmXbXmXmXNXmXmX",
"mXmXxXmXmXmXmXmXMXmXmXmXmXmXmXmXmXmXmXjXi.$ . # & * X 8 H K ] 1. .3.3. . .] ~ p u = = = + qXGXDXAXAXNXmXmXMXmXmXmXbXmXmXmXmXmXmX",
"xXNXmXmXmXmXMXNXmXMXBXmXmXmXmXmXbXmXNXjX} # $ & 5 ; i [ [ { { Q 3.{ e : 1 & # - , r ~ ^ k.aXGXDXDXDXAXSXNXmXmXmXmXmXbXmXmXmXmXmX",
"mXNXmXmXxXMXmXmXMXBXBXBXBXBXBXBXNXNXBXdX[ # # # 5 _ j.j.|.3X1XU.r.!.j.F O.+.D [ 2.l.^.8.R.c.N.wXvXBXDXDXAXBXNXmXmXmXmXbXxXmXmXxX",
"NXmXNXmXmXNXBXAXDXDXDXAXAXDXaXv.z.x.7XM.W # # $ 9 ] r.k.rX5X4X<X/.j.j.R @.6.W ~ 4.:X=XW.r.k.a l iXlXjXAXGXDXVXmXxXmXNXmXxXmXmXmX",
"mXmXmXBXSXZXSXBXNXbXxXjXxXxX8X<.7 u 8.8.] & # 1 8 =.k.OXrX5X4X4X.X!.e._ H.r.L [ p.:X=X~.w.E.3.2.uXzXlXlXNXDXFXZXVXNXNXMXbXMXMXnX",
"BXAXDXAXBXbXzXlXkXkXkXlXkXkXB.3.0 / t.t.o.< # & & ) j.!.5X4X4X2X_.E.=._ E.E. .L { l.=XW.w.r.6.2.iXkXkXkXfXmXVXFXDXDXNXmXNXnXnXNX",
"SXAXNXxXlXzXkXkXhXkXlXkXlXlXC.3.7 Q t.P.#.< # . < H -.j.E.%X%X).Y.T.' =.[.W.q.9 [  .r.q.D.e. .2.uXcXzXkXkXkXlXmXDXDXFXDXDXSXSXDX",
"MXcXhXlXkXkXkXlXxXxXmXbXxXbXM.^ ; Q 8.8...< . # 3 U R e.0.e.H.e.D.'.| e.oXW.9.F F L _ 7.=. .^ 2.fXMXlXkXkXkXkXkXxXNXAXAXSXSXZXVX",
"kXkXkXkXlXlXcXxXmXbXmXmXmXmXv.a ; Q 6.5./ 1 # # 4 Y T O.$.=.0.e.'.2X .j.{.[.w.K ! P L L ; t a f iXmXMXlXlXlXkXkXkXlXlXlXxXlXjXhX",
"kXgXlXzXlXzXmXmXmXmXmXmXmXmXx.i = Q 1.<.H # . # 3 H T $.S.:.0.).3X:X~ H.XXXX[.@.! @.W &   - y d yXMXMXMXxXxXlXkXlXgXlXkXkXlXkXkX",
"lXzXxXlXxXxXbXmXmXmXmXmXmXmXx.y > ^ ^ / D #   . < I T o.#.Z.S.{.3Xk.W [.}.}.}.D.P ! 0 *   - y r 0XmXmXNXmXxXbXlXgXlXkXlXlXlXlXgX",
"lXbXlXmXmXmXbXmXmXmXmXmXmXmXv.y t ^ ^ ] H .   . < S I ..o.A.J.{.&X4._ ,XXX}.U.S.! 6 w :   - a > M.MXNXmXmXmXMXnXzXlXkXkXlXlXlXgX",
"mXMXmXmXmXmXmXbXmXmXmXmXmXMXv.t 7 u ^ ] F . # 2 S T T X.Z.A.T._.Q.~ =.>X,X(.H.G.=.9 e :   o u 7 d.vXmXmXmXmXmXmXMXxXbXmXmXxXxXbX",
"mXNXmXmXmXmXmXmXmXmXmXmXmXMXm.6 W Q y ` A & < 3 S T O.*.A.J.#X&XoXp  ..X X^.H.P.9.K 0 > o o 0 u } fXmXbXMXMXMXmXMXmXmXmXmXmXmXmX",
"MXmXmXbXmXmXmXbXmXmXmXmXMXMXM.7 8 / _ ( A * 3 4 S S R :.T.&X*X1X+Xe =.XXQ.~.Q.r.6._ E 6 o   7 W [ yXBXNXMXNXmXmXmXmXNXbXbXmXmXmX",
"MXmXmXmXbXmXmXbXmXmXmXNXMXMX7Xu G ] ` P < # 4 A 3 q A ;.#X1X2X1X'.q =.oXQ.~.k.r.8._ ! 5 $ X 0 t > qXDXSXVXVXBXNXmXmXMXmXbXmXmXmX",
"MXMXmXMXmXxXbXNXNXVXAXSXDXDX7X7 G Q ] / % & 3 2 q L L ;.T.1X1X1X|.9 =.oX~.^.k.8.6.~ ! 9 ; X t t > qXGXDXFXFXFXZXNXmXMXMXmXmXMXmX",
"NXNXmXmXmXBXSXSXSXDXSXSXAXDXx.> 8 E Q / 1 D S F ) ) R *.T.%X#X.Xj.8 -.XX-X^.~.r.7.~ W e :   t a Q M.BXmXNXAXSXSXDXCXMXmXmXMXmXlX",
"mXmXmXBXCXSXCXNXbXxXxXlXkXhXd.7 E E a 0 3 F P R ' ' *.;.'.%X%X{.6.4 *.1X1X[.Q.R.r.~ L e : o y ^ Q x.kXkXzXzXxXNXSXSXZXCXNXmXxXxX",
"mXBXZXSXCXMXlXjXkXkXkXkXpXiXp.u / ^ <.E 2 4 F R ' ;.;.T._.@X@X$X7.3 w.<X,X;X^.Q.H.7.! e : - u 1./ x.kXkXkXkXkXjXbXBXSXSXAXBXmXNX",
"DXSXZXnXlXkXkXkXlXkXkXkXkXuX2.E E 1.<.Q 1 8 Y ` ' +.X.%.S.L._.). .4 /.,X[.;X;X~.E.w.! 7 , - u @...c.kXkXkXlXkXkXzXlXbXnXZXZXDXZX",
"CXMXlXlXlXlXkXzXkXkXkXlXzXyX{ U ( 5.1.a 5 K Y ` *.+.+.+.+.D.R.R.~ ! oX,X}.oX;X~.R.9.E , w - d c.6XwXkXzXzXzXkXkXkXlXkXlXbXbXnXBX",
"lXlXgXkXlXlXgXzXlXxXxXxXxXtX| I Z.#.0.] 5 K Y ` ;.-.+.-.:.w.w.q.e  .1X3X%X;X>X X(.r.~ w , = u.jXlXxXxXMXbXlXxXcXlXlXkXkXkXkXgXlX",
"kXkXkXkXlXlXlXzXxXbXmXmXMXlXwXz.Y.7.Y 0 8 S U R ;.:.$.$.S.K.S.9.6  . X>X X^.;X;XQ.I.6.p t = y.jXbXbXmXMXmXmXxXMXxXzXlXkXgXkXkXkX",
"gXkXkXlXlXlXmXMXbXmXbXmXmXmXMXbXbX8Xq # 1 J O.R ;.A.Z.o.A.K.D.=.,  .r.j.7.r.j.k.k.j.=.p w $ y.jXbXmXmXmXmXmXmXMXMXxXbXzXzXkXkXkX",
"kXxXxXbXbXMXMXbXmXmXmXmXmXMXbXmXnX7X2 # 4 J U O.;.A.$.;.S.S.0. .: L ! R )  .' U J W L 6 : * y.vXmXmXmXmXmXmXmXMXMXmXMXbXnXzXlXkX",
"bXmXnXmXmXmXmXbXmXmXmXmXmXmXbXMXMXm.< # 1 A S J X.O.X.#.A.K.K.:.$.A.A.F.D.A.#.....Y 2 6 : o u.jXmXmXvXbXmXmXmXMXmXmXmXmXmXmXbXbX",
"mXmXmXmXmXmXmXmXmXmXbXmXMXmXMXnXnXc.# # 2 4 S U R ....o.#.J./.K.J.K.K.Y.p.>.,.R X.Y F L w   f.xXmXmXbXmXNXMXmXmXmXMXmXmXbXnXnXbX",
"mXmXmXmXmXmXMXmXMXbXmXmXmXmXmXNXnXz.% % D A U U X.$.$.;.:.F.P.Q..XoX~.B n g b k L S 3 9 :   g.MXmXNXmXMXmXmXNXMXmXmXbXmXmXmXmXmX",
"mXbXmXmXmXbXbXMXmXmXmXmXmXmXmXmXvXh.3 < 3 4 O.T T :.F.F.F.L.L..X>X>Xu.x b c b b @ A 4 3 :   g.MXmXMXmXmXmXmXmXmXmXmXmXmXmXnXmXmX",
"nXMXmXmXbXnXzXbXxXmXmXnXmXmXmXmXvX} 4 8 4 S T I ..;.J.F.J.@X$X,X1Xl.V n m c b M @ 2 S A 2 X x.xXmXmXmXmXmXmXmXmXmXmXmXbXmXbXmXmX",
"MXmXmXbXNXnXCXZXSXSXDXDXDXAXBXNXfXf % D S 4 D S I $.0.A.J.K._.$X1Xs.N M M b c m j * A A 1 X v.BXNXmXNXmXbXmXmXmXmXmXmXmXmXmXmXmX",
"MXnXmXNXZXSXDXFXDXDXDXDXFXDXDXAXnXi.% K 4 1 8 H U O.+.&.G.K.U.@X.Xu.N M N M c b h * T U 6 o v.FXDXSXZXCXnXMXmXmXmXmXmXmXmXmXmXmX",
"NXVXZXDXFXDXCXnXmXxXlXxXjXbXNXBXBXh.% 1 4 3 8 D ( +.o.%.%.S.K.U./.y.N N N m c c h , ) q : X g.NXVXSXDXDXDXCXBXmXmXNXmXmXmXmXmXmX",
"VXZXDXDXCXMXlXlXkXkXkXkXzXkXkXkXmXc.4 G D K 8 D ( +.5.&.o.A.U.@X/.y.N C b.m c c x + [ q -   f.kXlXlXnXCXDXFXZXVXNXmXmXmXmXmXmXmX",
"FXDXSXNXlXlXkXkXlXkXkXkXkXkXkXkXcXN.3 G K G 8 8 ( &.5.&.@.0.I.U.L.y.M N b.m z B V + L e ,   f.lXlXkXkXlXnXCXDXFXDXSXNXNXnXNXNXZX",
"AXNXlXhXkXlXlXlXkXlXlXlXlXkXkXkXzX8X6 5 L 4 5 8 ` 5.5.+.&.0.S.K.H.y.C V b.b g h j + 9 L : X f.zXlXzXkXcXlXhXbXBXSXFXFXFXDXDXFXFX",
"mXxXhXpXkXhXlXlXlXxXxXlXxXxXxXjXzXtX~ * 9 G G 0 / ( ` 0.&.&.D._.Y.>.C n b.b b g j + 3 9 : . u.kXlXkXkXkXkXkXkXkXxXmXVXSXDXDXCXVX",
"kXkXlXlXhXxXbXbXmXxXmXxXxXxXmXxXxXyX[ W E G ! G 8 H / ` ( &.H.K.F.k C V Z n b g h + 1 2 : . u.kXlXlXkXhXhXlXkXkXkXlXkXlXbXbXgXlX",
"kXkXlXxXxXxXmXmXmXbXmXmXbXmXmXmXbXfXi.1 7 D 0 8 8 7 9 ` Y @.:.;.A.>.N C Z n v g h O < 1 : f 0XmXxXxXlXlXjXxXlXlXkXkXkXkXkXgXkXkX",
"lXlXxXxXmXmXmXmXmXmXmXmXmXmXmXmXmXmXyXx.[ L G 0 0 0 D D F R ;.$.$.f C C Z n n V k O 3 e a.yXmXmXbXmXbXxXxXxXjXkXlXzXlXzXzXlXzXlX",
"lXxXmXbXmXmXmXmXmXmXmXmXmXmXmXmXmXmXMXMXdX7Xh. ._ { @.` O.$.*.$.#.,.n.n.n.n.V.0XwXf.z.qXjXmXmXmXmXmXmXbXxXmXxXzXlXlXlXlXgXlXlXlX",
"xXbXmXbXmXmXmXmXmXmXmXmXmXmXbXbXmXMXmXmXMXMXjXdXyXeXqX6XOX!.!.'.T.6XfXfXbXnXnXnXMXbXbXBXNXmXmXmXmXmXmXmXmXbXxXxXxXxXlXlXxXlXlXlX",
"mXmXmXmXmXmXmXmXmXmXmXmXNXmXbXbXmXMXmXmXlXMXmXmXNXMXmXmXnXfXnXvXdXvXMXlXnXnXnXnXmXmXbXmXmXmXmXmXmXmXmXmXmXmXbXmXmXbXmXmXbXmXmXbX"
};
