/* XPM */
static char *d42e1b5550914edcb3bfb7a657520d996rL9pDyVDUPlCOD9[] = {
/* columns rows colors chars-per-pixel */
"64 64 236 2 ",
"   c #030202",
".  c #050A05",
"X  c #040C0C",
"o  c #0D0908",
"O  c #010C19",
"+  c #031214",
"@  c #041A18",
"#  c #1A1616",
"$  c #171F19",
"%  c #011825",
"&  c #181C25",
"*  c #07202E",
"=  c #012334",
"-  c #192431",
";  c #1D2E3B",
":  c #15323B",
">  c #292522",
",  c #292A34",
"<  c #27333B",
"1  c #393634",
"2  c #073647",
"3  c #1B3A44",
"4  c #263948",
"5  c #184956",
"6  c #26455B",
"7  c #354B54",
"8  c #014D72",
"9  c #085E78",
"0  c #304F66",
"q  c #365B62",
"w  c #3D6471",
"e  c #484945",
"r  c #4C5857",
"t  c #555358",
"y  c #495764",
"u  c #5D5F62",
"i  c #4D6975",
"p  c #407272",
"a  c #69746D",
"s  c #7E8377",
"d  c #0F6187",
"f  c #317391",
"g  c #436C83",
"h  c #518699",
"j  c #688988",
"k  c #6B888D",
"l  c #4B9EB6",
"z  c #699BB5",
"x  c #59A5B9",
"c  c #7AA3A8",
"v  c #6FA9BF",
"b  c #4B97C2",
"n  c #5AAFDA",
"m  c #67ABC0",
"M  c #7DB5C6",
"N  c #62BDDB",
"B  c #7BBDD1",
"V  c #76BCDC",
"C  c #49B7E4",
"Z  c #5ABEEC",
"A  c #63BAE3",
"S  c #68B9E6",
"D  c #76BBE9",
"F  c #5FC2DC",
"G  c #6BC7DE",
"H  c #7DC3D3",
"J  c #73C5DC",
"K  c #7AC4DC",
"L  c #5EC6EE",
"P  c #5BC5F7",
"I  c #5ECDFE",
"U  c #5FD2F4",
"Y  c #62C4E5",
"T  c #6BC4E5",
"R  c #64C2EB",
"E  c #6AC1EC",
"W  c #6BCAEC",
"Q  c #7BC5E4",
"!  c #73C7E8",
"~  c #7CC5EB",
"^  c #7DD0EA",
"/  c #63C5F2",
"(  c #6BC6F3",
")  c #64CBF4",
"_  c #6CCBF4",
"`  c #64C7FA",
"'  c #6DC4F9",
"]  c #65CCFD",
"[  c #6BCBFC",
"{  c #72C5F4",
"}  c #73CBF3",
"|  c #7CCBF3",
" . c #71C6FC",
".. c #72CBFC",
"X. c #78CEFB",
"o. c #65D0F4",
"O. c #63D2FB",
"+. c #6BD4FD",
"@. c #73D3FD",
"#. c #78D5FE",
"$. c #8D8B8D",
"%. c #86989C",
"&. c #9B9B96",
"*. c #84A19A",
"=. c #ADAA99",
"-. c #AFB29C",
";. c #89AAA9",
":. c #95ADAF",
">. c #8FAFBC",
",. c #8FB0BF",
"<. c #94BFBD",
"1. c #B2B3A8",
"2. c #B4B8B7",
"3. c #C3BBB0",
"4. c #AAC4B7",
"5. c #DACD98",
"6. c #DED19C",
"7. c #EAD79C",
"8. c #ECDC9C",
"9. c #F3E29B",
"0. c #C3C2BD",
"q. c #D4D2B9",
"w. c #E7DAA5",
"e. c #EDDEA3",
"r. c #ECDEA9",
"t. c #F1DEA2",
"y. c #F0DFA9",
"u. c #EBDDB1",
"i. c #EEE1A4",
"p. c #EEE3AB",
"a. c #F5E3A6",
"s. c #F9E4A6",
"d. c #F7E8A7",
"f. c #F4E4AB",
"g. c #F9E5AB",
"h. c #F5E8AE",
"j. c #FAE9AD",
"k. c #EFE4B2",
"l. c #EDE6BA",
"z. c #F4E6B2",
"x. c #F9E6B2",
"c. c #F6E9B4",
"v. c #F9EAB4",
"b. c #F2E6BA",
"n. c #FBE7B9",
"m. c #F5EABB",
"M. c #F9ECBB",
"N. c #F4F0BE",
"B. c #FCF1BC",
"V. c #83A9C3",
"C. c #83B7C8",
"Z. c #9FB2C1",
"A. c #81BAD6",
"S. c #8ABBD3",
"D. c #87BDE0",
"F. c #81C4DD",
"G. c #8AC5DA",
"H. c #8DC8DF",
"J. c #96C9DA",
"K. c #A5C9C6",
"L. c #ABC7CA",
"P. c #A1D3CB",
"I. c #B7DDD6",
"U. c #9FE1D5",
"Y. c #82C2E4",
"T. c #85C6EA",
"R. c #88C9E8",
"E. c #9ACCE3",
"W. c #8BD2EC",
"Q. c #95D2EE",
"!. c #84CCF7",
"~. c #84D3F8",
"^. c #95D9F7",
"/. c #A9D7E7",
"(. c #AFDCF3",
"). c #BCE3E3",
"_. c #B8E7E6",
"`. c #BCF3EA",
"'. c #B4EAF8",
"]. c #BAF5F9",
"[. c #D1D1CE",
"{. c #D7DBD6",
"}. c #DCE6D9",
"|. c #E3E2C8",
" X c #F6EBC1",
".X c #F6ECC2",
"XX c #FAEEC3",
"oX c #FAEEC5",
"OX c #F6EECB",
"+X c #FBEFCC",
"@X c #F6F1C3",
"#X c #FCF2C4",
"$X c #FEF2C5",
"%X c #F7F0CB",
"&X c #FAF2CA",
"*X c #FEF2C9",
"=X c #FAF2CE",
"-X c #FDF3CC",
";X c #FDF2CD",
":X c #FFF9CE",
">X c #E5E9D7",
",X c #FDEFD3",
"<X c #F9F4D3",
"1X c #FDF4D2",
"2X c #FDF5D2",
"3X c #FEF9D2",
"4X c #DCEFED",
"5X c #C4F4ED",
"6X c #CCF3EB",
"7X c #CAEDF1",
"8X c #C4EDF8",
"9X c #CBF5F4",
"0X c #C9F5F7",
"qX c #C4FDF4",
"wX c #CBFAF6",
"eX c #C4FEF9",
"rX c #CCFDFC",
"tX c #D4F7F7",
"yX c #D3FDFC",
"uX c #DBFEFC",
"iX c #E8EDEA",
"pX c #F6ECEB",
"aX c #F8F3EB",
"sX c #E7EEFA",
"dX c #F5EAF8",
"fX c #E9F4F4",
"gX c #EFFCF7",
"hX c #E5FEFF",
"jX c #ECFEFE",
"kX c #F4F4F5",
"lX c #FEF6F5",
"zX c #FEFBF5",
"xX c #F4F5FB",
"cX c #FDF5FA",
"vX c #F4FEFD",
"bX c #FDFDFD",
/* pixels */
"c.c.c.M.v.z.c.c.v.c.h.c.j.c.v.c.c.c.c.c.c.c.c.c.M.z.c.c.c.c.z.z.c.c.c.c.z.M.5.c.c.c.c.c.c.c.c.c.c.c.c.c.v.c.c.c.c.c.c.c.c.z.c.z.",
"c.v.c.c.m.z.c.c.v.c.c.c.c.c.v.c.v.m.z.c.c.z.c.c.c.z.c.c.c.c.c.c.M.c.c.c.z.c.c.c.c.c.c.c.c.c.z.c.c.c.c.c.c.c.M.c.c.c.c.c.c.c.z.c.",
"c.c.B.z.p.c.v.c.c.z.c.M.m.c.c.c.c.v.m.c.z.z.z.v.c.v.v.v.c.c.z.c.c.v.M.h.c.z.c.c.c.c.c.c.M.c.c.c.c.c.c.c.c.v.c.c.c.c.c.c.v.c.c.c.",
"c.c.v.z.f.m.c.v.c.m.v.M.c.c.z.c.c.v.c.c.c.c.c.c.c.c.m.c.c.z.c.z.c.c.c.M.z.c.z.c.c.M.v.c.c.c.c.c.v.c.c.c.c.c.c.c.c.c.c.c.m.c.c.c.",
"c.z.p.c.c.c.c.m.m.m. X$X$X$X$X$Xc.m.c.c.c.c.v.c.v.M.v.z.z.z.c.c.c.c.b.h.c.c.z.c.c.c.c.v.c.c.b.c.c.c.v.M.c.c.c.c.c.c.c.c.v.c.c.v.",
"c.c.c.c.m.m.$X&X<X&X&X.X.Xm.b.b.-X$X:XoXb.c.c.c.c.v.M.v.v.c.c.v.v.c.c.c.c.c.c.c.c.c.c.c.c.c.h.c.m.oXXX X X X Xb.m.c.c.c.c.c.c.c.",
"c.c.c.m..X=X=X<X=XM.h.f.g.r.h.h.f.f.OX:X$X$Xb.c.c.c.v.v.c.c.c.c.c.c.c.M.c.v.v.c.c.c.c.c.c.c..X*X<X1X-X$X-X-X-X<X&Xm.m.c.c.m.c.c.",
"l.@X&X:X1X:X:Xm.f.d.a.s.s.9.a.s.a.a.d.p. X=X1X&X Xm.z.c.c.M.c.z.c.v.c.v.c.m.v.c.c.c.m.m.$X&X<X.Xh.e.f.f.s.f.f.z.#X&X3X@X@Xm.l.m.",
"1X=X<X<X1X.Xu.a.a.p.f.j.g.s.s.s.s.s.7.s.f.z.oX1X&X$Xb.c.c.v.z.z.c.v.c.v.c.c.c.m.c.m.#X:X,X+Xc.z.g.y.a.e.s.s.s.s.h.c.$X3X<X3X3X<X",
":X#X#Xc.f.s.a.a.a.a.a.a.s.a.p.s.a.a.a.a.s.f.s.x.$X=X<X+X Xb.z.h.M.M.c.c.c.c.m.@X=X<X-X.Xz.y.s.s.s.g.a.s.r.a.f.s.a.a.a.p.M.#X#X:X",
"z.z.a.f.f.a.s.f.a.a.f.j.g.j.f.f.f.a.a.a.a.s.s.a.h.b.:X1X1X1X-X+Xl.m.$XoX&X&X+X1X1XoXz.r.a.s.f.s.g.s.s.f.s.f.f.a.a.a.s.f.h.u.z.z.",
"g.y.s.a.t.f.f.s.a.c.h.v.v.j.v.v.v.j.g.f.s.f.y.a.s.s.f.c..X-X1X1X<X<X<X<X<X=XoXz.z.g.g.r.y.s.f.h.h.x.h.h.v.v.j.f.f.f.f.a.a.s.s.s.",
"a.a.8.s.j.s.f.z.h.h.c.v.j.v.j.c.v.v.j.h.f.f.s.a.f.s.p.e.p.h.z.z.$X$XXXXXv.h.h.g.7.a.a.a.f.h.h.h.x.f.h.h.v.v.v.j.h.s.f.s.a.a.a.t.",
"a.f.f.f.e.f.f.z.v.c.h.v.c.c.c.c.c.c.v.c.z.h.h.s.f.s.y.s.f.s.a.f.a.a.a.t.s.s.t.j.a.a.p.h.z.z.c.v.v.h.z.z.v.c.v.h.z.z.k.s.f.i.f.t.",
"f.s.f.h.h.z.c.z.z.c.c.c.c.c.v.c.c.v.z.c.z.c.z.f.f.f.f.s.a.a.a.a.a.a.s.t.s.s.f.t.a.v.z.z.c.z.c.v.M.c.v.c.v.c.c.c.z.c.z.h.f.f.f.r.",
"z.h.x.z.c.c.z.c.c.c.c.c.c.c.c.h.v.m.v.c.c.z.z.c.z.f.z.f.a.f.f.f.a.a.e.h.s.s.f.h.g.v.c.c.z.c.v.m.c.c.v.c.c.c.c.c.M.z.h.v.v.v.v.h.",
"c.c.h.c.c.c.c.c.c.c.v.c.v.c.c.c.c.c.c.c.c.c.c.c.c.c.c.s q.|.o $ q.h.h.h.h.h.h.h.v.m.c.v.c.c.c.c.c.c.c.c.v.c.c.c.c.c.v.c.c.M.c.c.",
"c.c.c.c.c.c.c.c.v.c.m.v.c.M.c.v.h.c.c.c.6.c.k.c.c.l.4.yXwX5XyXwX6X*.X + $ c.v.h.v.v.c.v.c.c.c.c.z.c.c.c.c.c.v.c.c.c.c.c.c.c.c.v.",
"c.c.B.p.w.c.c.c.c.c.v.c.c.v.M.c.c.c.c.c.c.c.c.. j s 0X`.wXeXP.).`._.wXeXuXL.z.N.c.v.v.x.v.n.c.v.c.c.c.c.v.M.v.c.c.c.c.c.M.c.M.h.",
"m.c.c.c.B.c.m.c.M.c.c.c.c.c.c.c.c.c.c.c.c.c.X 9XP.qXeXqXrXrXyX_.eXp eXeX`.yXh.h.c.v.v.b.z.m.b.b.c.h.c.v.v.v.v.c.c.z.b.c.h.h.M.c.",
"h.M.c.c.c.c.c.c.c.c.c.v.M.v.c.z.c.c.v.c.c.c.I.qXeXwX0XuXc 7X).k 3 : q Z.8X:.h.c.z.l.&X1X<X=X=X%X3X@Xc.m.c.c.h.c.c.h.c.c.c.z.c.c.",
"c.c.c.c.c.c.v.c.c.c.M.c.c.v.c.c.c.c.c.c.c.h.6XqXwX).tX4XX z ! E { { _ #.D.5 iXc.M.1X1X1X:X=X=X-X&X3X:Xm.m.c.c.c.c.c.c.k.c.z.c.c.",
"k.c.c.c.c.c.c.m.m.M.m.#X$X$Xm.m.c.b.m.v.v.@ `.qXeXtXc _ L Z n Z  ._ / _ +.C T R.i M.h.h.f.a.i.f.p.m.1X1X.Xm.m.c.c.c.c.c.c.c.z.c.",
"c.c.N.z.h.h.M.@X*X3X:X*X-X:X-X:X:X=X&X@Xc.}.I.uX+ vXE._ ` ) _ [ [ [ [ [ ] ] _ _ ^.2 f.s.f.f.s.f.f.s.p.-X=X1X.Xc.h.c.m.h.h.h.c.c.",
"c.m.c.m.XX-X$XoXz.f.p.e.f.p.f.i.f.h..X&X-X1X7 %.iXcXA.[ ` [ [ [ +.] [ ] [ ] ] / ) S m 2.f.g.s.f.a.a.a.f.b.-X*X<X@Xb.x.v.x.v.M.x.",
"@X.X-X-X-Xz.y.a.a.a.a.a.a.a.a.a.a.a.p.h.m.$XV./.cXvXB [ ` ` [ [ +.] ] ] [ [ ] ] ] ..K @ o s.g.f.s.a.a.a.t.n. X<X%X$Xm.c.b.z.b.z.",
"+XoXk.h.f.a.a.a.a.f.f.f.f.f.s.f.f.f.a.a.j.,...G.bXbXB [ ] ] [ [ [ [ [ [ ] O.] ] [ ! dXpXvXcXt.s.f.s.p.s.t.9.a.z.:X<X<X:X:X-X:X-X",
"f.s.a.a.a.a.a.f.f.c.c.c.z.z.z.z.h.p.f.a.u E.+.B zXvXS.] I ] Q.h z D.#.P I [ ] ] ' 6 & [.bXlX0.v.c.c.h.f.d.a.a.a.f.b.#X*X-X:X1X X",
"a.t.y.g.a.s.h.h.j.z.c.z.c.z.c.c.z.z.j.> bXC.+.B bXvX(.[ [ ~ vXbXgXxXZ.C._ [ ] O.{ O bX  &.kXbXo z.c.x.z.f.p.a.a.s.f.f.i.a.a.i.f.",
"s.t.s.a.f.f.c.c.v.z.z.c.c.c.c.c.c.c.x.lXbXM ) K bXvXtX_ [ Y.kXpXbXbXvXjXY.} ] ] { < zX  $ bXiXkXz.z.v.v.h.f.p.a.f.t.a.a.a.a.f.8.",
"f.f.f.j.z.c.h.c.c.c.v.z.z.c.c.c.c.v.;.bXvXF.] | bXvXhX} I x   . , vXgXbXhXG.P [ } ;   o   cXbXbXz.c.M.c.c.c.h.z.f.s.a.s.s.f.j.e.",
"z.h.z.v.c.h.c.c.m.c.c.z.c.c.c.c.c.c.J.xXvXH ` | bXbXhX} O.v $.bXo # bXbXbX6 +.[ } 6 X   1 bXkXkXv.c.m.c.v.x.z.z.c.s.a.a.p.a.f.8.",
"c.v.v.c.c.v.c.z.c.z.c.v.c.v.v.c.f.2 K bXjXF.[ ! hXbXhX~ ] ! 2.bXo   t bXzX= +.] [ W.& 3.zXbXbX{.v.v.v.v.v.c.c.v.c.c.z.c.z.z.h.z.",
"c.c.c.c.m.c.c.c.c.z.c.c.v.m.c.c.z.Q.J bXvX/./ _ uXzXvXY...R , .     > bXbX0 [ ] ] F % gXlXdX1.aXv.v.z.v.x.v.v.c.c.c.c.c.c.c.c.c.",
"v.m.c.z.c.c.c.c.z.z.c.c.c.c.M.c.= S ! vXbX8Xo.o.yXbXbX].{ @.2 ,   o e bXi T.] ] ] ] { !.f B q >Xx.x.b.x.M.z.c.c.c.c.c.z.h.v.c.c.",
"c.v.c.z.c.z.c.p.M.z.c.v.m.v.c.x.M +.W hXbXhXL ) '.vXbXhX_  .J sX& > kXhXR.E ] [ [ [ I @.( W = ;.L.r 1X-X.X Xm.c.c.c.c.c.z.m.c.c.",
"v.v.v.v.v.h.p.b.b.=X-X1X1X1X,XoXF._ W yXaXjX_ ' F.cXgXjXT ] } D 0 vX% Q.] o.I U ] / L [ [ } h wX`.qX&.=X3X<X=X=Xb.c.v.v.c.c.v.v.",
"m.v.c.c.v.m.#X:X-X:X:X1X-X1X:X:XQ ] } '.zXvXT ' G bXbXfX| ] X.( !.K ^ +.] [ _ X.D n 8 ' _ ~ rXwXuXwXe m.m.$X1X1X:XM.m.c.c.c.h.h.",
"c.m.m.m.m.-X$Xb.z.g.i K Q B * >XZ +.+.F.bXvXB O.X.yXzXbX(.( .._ X.X.P L ] [  .b f | | [ _ Y.0XrXyX4 =.s.j.s.f.m.-X*XoXm.b.c.c.h.",
"c.c.$X-X+Xc.h.f.a.s.C./ ` ' A f ] ] ] ~ hXbXJ._ ' B bXbXuXV _ _ _ ] ] o.] ] [ _ _ [ _ ` #.5 eXU.`.hX9.9.a.a.s.p.z.M.$X:X@Xc.l.c.",
"1X-X-Xp.c.y.s.s.s.s.f.Y.! l 9 I  .] P ( tXvXjXA ..T xXiXyXW.W } [ _ [ ] ] ] ] ] ` ] _ { = {.5XK.uX+ a.a.a.s.a.a.a.f.p.l.oX-X+X,X",
"XXz.f.g.f.a.s.y.a.i.i.-.>.T.` Z ..[ O.) D jXfXS.] Z yXI.yXqXeX].V `  . .] [ ] [ [ X.! C.s.> I.wX4Xh.s.f.h.f.f.f.a.f.a.f.y.n.n.XX",
"j.f.a.a.s.s.g.a.a.z.h.c.x.& ^.' _ ] +.H.w $ r < 2 k rXyXqXqXeXeXg _ [ _ [ [ [ ] [ ^ 4 a.f.j.a X z.h.j.h.z.h.d.d.f.s.f.a.s.s.g.a.",
"t.a.a.a.f.f.f.j.h.c.c.c.M.x.3 V A S T.h.h.s.w.f.s.h.0XwXI.qX5X0X2 Y U / +.[ | D.g -.f.v.x.j.h.c.h.z.v.v.v.v.v.v.j.h.f.a.t.s.t.s.",
"a.t.a.f.p.c.h.c.h.c.c.c.c.c.m.T.!.S T.j.f.f.h.s.f.a.a 6XuX6X<.5X: y - - ; q f.s.g.f.c.v.v.c.c.M.z.c.c.c.m.c.c.v.v.h.h.h.g.t.a.a.",
"t.f.h.h.z.c.v.c.c.c.h.c.c.c.z.z d @.Y.z.c.h.e.f.a.a.d.@ hXtX;.yXa.a.f.a.s.s.s.j.x.z.c.v.v.c.c.v.c.c.m.c.c.c.v.c.v.v.z.z.x.f.a.a.",
"v.z.z.c.c.c.c.c.c.c.c.c.c.c.z.T ] O.M z.c.v.c.z.h.h.p.f.a.h.1.d.r.f.f.s.v.z.f.z.z.c.z.c.c.c.c.c.c.c.c.z.v.c.c.v.c.c.c.c.c.c.c.p.",
"c.v.c.z.c.v.c.z.c.c.c.v.m.v.c.W { N 6 v.c.c.c.v.c.h.c.h.h.h.h.h.x.h.x.v.z.z.m.c.c.c.z.v.c.v.v.c.c.c.z.h.c.v.m.c.c.v.c.z.z.c.c.c.",
"c.c.v.c.v.c.v.m.v.c.c.c.c.v.c.m A.} $.p.c.c.z.p.B.c.c.z.c.c.c.k.x.v.v.v.c.z.z.c.c.c.c.c.c.c.c.c.c.v.m.v.v.c.c.c.c.z.c.b.c.c.c.v.",
"c.z.v.c.v.z.c.c.c.z.z.c.c.c.M.~.E ^.c.c.c.c.z.c.c.h.z.c.c.c.c.c.z.z.c.c.z.c.c.c.c.c.c.c.c.c.c.c.c.c.c.c.c.c.M.c.v.c.c.v.c.c.c.c.",
"n.v.c.c.z.x.f.c.h.c.h.c.h.h.z.- P.7 c.c.c.c.c.c.c.z.c.c.c.m.c.c.c.m.c.z.v.c.c.M.c.c.c.c.c.c.c.c.v.v.c.c.h.z.b.c.c.z.z.z.c.z.c.z.",
"v.c.b.c.c..Xm.oX&X1X1X1X1X<XN.m.c.v.v.c.c.h.h.c.z.c.c.c.c.c.c.c.c.v.c.c.c.v.c.c.u.c.c.c.c.c.m.b.c.b.m.z.c.c.v.c.c.c.c.c.z.c.c.c.",
"v.z.f.m.@X:X1X1X1X:X:X3X3X3X%X@X.Xz.m.M.v.c.c.c.c.z.c.c.c.p.c.c.v.v.M.c.c.v.m.b.$X:X-X*X-X*X:X,X=XOX+XM.z.c.c.c.c.m.c.v.c.c.c.v.",
"m..X-X1X-X-X Xn.c.f.f.a.f.f.z.M.#X$X Xn.m.c.v.z.z.c.c.p.m.c.c.c.h.v.m.M.+X+X:X$Xm.m.c.z.b.z.z.z.m.XX-X1X1XoXm.v.c.v.c.c.c.c.z.c.",
"b.oX1X,X+Xb.f.t.a.a.a.a.a.s.s.t.z..X1X+Xm.c.c.c.c.c.c.p.v.c.c.c.d.c.m..X+XoXl.k.p.a.i.a.p.f.a.s.a.t.m.XX+X1X1Xm.c.c.v.c.c.z.z.c.",
"3X:X:Xz.f.s.a.a.a.a.a.a.f.a.a.f.s.f.z.@X*X-XoXm.b.b.b.m.m.b.m.m.=X:X$XM.z.f.s.f.f.e.f.s.s.s.s.g.s.g.a.h.z..X-X<X1X&Xm.m.m.b.m.-X",
"*Xm.v.8.d.a.a.a.a.f.f.a.f.f.a.a.a.f.i.i.M.XX-X1X:X=X=X:X=X:X1X3X=X.Xh.a.s.f.f.f.f.x.s.s.s.f.f.y.f.a.a.a.a.e.z.m.-X1X2X-X1X-X<X2X",
"f.h.f.a.a.f.h.h.h.h.c.a.f.v.h.h.f.a.f.f.a.f.h.l.b.oXoX$X.X Xb.b.i.p.s.s.r.s.g.f.f.s.f.y.y.f.f.s.f.f.a.a.a.a.a.a.a.h. X-X-X-XoXM.",
"j.t.a.a.a.h.c.h.c.h.c.c.c.p.c.h.h.f.y.g.a.f.a.f.f.f.a.a.f.j.f.a.d.a.a.a.f.g.g.e.s.s.a.f.g.j.h.h.f.f.i.d.a.f.a.a.a.f.i.f.y.f.y.e.",
"a.f.p.h.h.c.c.z.z.c.c.z.z.c.c.c.z.x.g.y.f.f.f.a.a.a.a.7.a.g.a.a.a.d.a.a.p.f.f.g.h.z.c.z.z.x.z.z.c.c.h.h.p.f.f.a.a.a.a.a.s.s.a.a.",
"f.f.h.c.z.v.c.c.c.c.c.c.c.c.c.c.c.z.j.j.f.s.f.s.f.a.s.v.f.f.f.f.a.a.a.a.h.h.h.a.c.c.c.c.c.z.z.c.c.c.h.h.h.f.f.f.h.f.f.a.f.s.f.f.",
"f.h.c.z.h.z.c.c.c.c.c.c.c.c.z.z.v.c.z.v.v.z.c.h.h.h.f.f.f.f.i.h.v.v.i.c.h.z.z.c.c.c.c.c.c.c.c.c.c.c.h.h.c.c.h.h.h.f.f.f.f.z.p.e.",
"k.h.c.z.b.c.c.v.c.c.c.c.c.c.z.c.m.v.v.z.m.v.v.h.h.h.h.f.f.h.a.v.c.h.z.c.z.c.c.c.c.c.c.v.c.c.c.z.c.c.z.z.c.z.h.h.h.h.h.h.h.f.f.z.",
"c.c.c.c.c.z.c.m.v.z.c.c.c.c.z.c.v.v.z.M.c.v.c.h.c.c.c.z.c.c.c.v.c.c.c.e.c.z.c.c.c.c.z.c.c.c.c.c.m.c.c.c.v.z.z.z.z.c.c.c.z.v.f.c."
};
