/* XPM */
static char *_7e50765752e43c6d7340ed09eb00ecfMp81TpZQZwpRr9qq[] = {
/* columns rows colors chars-per-pixel */
"64 64 213 2 ",
"   c #2E0101",
".  c #380101",
"X  c #4A0401",
"o  c #4C160E",
"O  c #5C1A09",
"+  c #7E0702",
"@  c #691E0A",
"#  c #721A0A",
"$  c #4C210B",
"%  c #5B2411",
"&  c #69210B",
"*  c #79260B",
"=  c #6B2713",
"-  c #6E2E17",
";  c #732D17",
":  c #772A18",
">  c #6B3018",
",  c #7A3315",
"<  c #7B3622",
"1  c #5B4730",
"2  c #684631",
"3  c #704B38",
"4  c #6C5C4D",
"5  c #7F7878",
"6  c #841F07",
"7  c #961903",
"8  c #981E11",
"9  c #902308",
"0  c #84340E",
"q  c #852912",
"w  c #972A14",
"e  c #8A3418",
"r  c #9A3A16",
"t  c #A62704",
"y  c #AA3504",
"u  c #B53707",
"i  c #A83419",
"p  c #B63B18",
"a  c #873823",
"s  c #A83828",
"d  c #BA3F27",
"f  c #E83E12",
"g  c #C33F25",
"h  c #EC3D26",
"j  c #83432C",
"k  c #914F3D",
"l  c #8A523E",
"z  c #965032",
"x  c #A14622",
"c  c #B14623",
"v  c #B44E26",
"b  c #B4462A",
"n  c #AF502C",
"m  c #B9542A",
"M  c #AE5234",
"N  c #BA5D3C",
"B  c #DF4512",
"V  c #D54118",
"C  c #EC4A08",
"Z  c #E54413",
"A  c #E84516",
"S  c #E6451C",
"D  c #EA451E",
"F  c #E24A19",
"G  c #EC4B1C",
"H  c #F44A19",
"J  c #F34C1D",
"K  c #EA571C",
"L  c #F15414",
"P  c #FA5615",
"I  c #FD5B16",
"U  c #F4531C",
"Y  c #FE561C",
"T  c #F55B1B",
"R  c #FE5A1D",
"E  c #F96216",
"W  c #FF621F",
"Q  c #CB4A2B",
"!  c #D84A25",
"~  c #D64E33",
"^  c #C55A3A",
"/  c #D75639",
"(  c #E24623",
")  c #E94621",
"_  c #E44A24",
"`  c #EB4A23",
"'  c #EC4A29",
"]  c #F34C22",
"[  c #F24A2A",
"{  c #EE5525",
"}  c #E65927",
"|  c #EC5B26",
" . c #EB532B",
".. c #F45324",
"X. c #FD5623",
"o. c #F55B23",
"O. c #FD5B22",
"+. c #F4522B",
"@. c #F25E2A",
"#. c #FE5D29",
"$. c #E55D3E",
"%. c #F75D32",
"&. c #CA6939",
"*. c #DF6631",
"=. c #E56428",
"-. c #ED622B",
";. c #F16424",
":. c #FC6225",
">. c #F3622C",
",. c #FC642B",
"<. c #F66A2F",
"1. c #FA692E",
"2. c #E36233",
"3. c #EC6433",
"4. c #E56935",
"5. c #E1663D",
"6. c #ED623C",
"7. c #F66835",
"8. c #FD6C36",
"9. c #F5673D",
"0. c #FD7436",
"q. c #F8763B",
"w. c #945A45",
"e. c #AC5E43",
"r. c #9B634A",
"t. c #8E6756",
"y. c #9B6B57",
"u. c #9E715D",
"i. c #BC724F",
"p. c #A06F5B",
"a. c #A2775F",
"s. c #AC7662",
"d. c #D25642",
"f. c #E75E42",
"g. c #F05D41",
"h. c #CF6B42",
"j. c #CE7755",
"k. c #E76442",
"l. c #E96A44",
"z. c #F56147",
"x. c #EF734E",
"c. c #F67448",
"v. c #A5886A",
"b. c #B48568",
"n. c #B68A71",
"m. c #B9937F",
"M. c #E5825C",
"N. c #C4947D",
"B. c #C39E7C",
"V. c #C39686",
"C. c #CDA88D",
"Z. c #CAB99F",
"A. c #D8B797",
"S. c #DCB69A",
"D. c #E9A080",
"F. c #FFAE8F",
"G. c #F4B698",
"H. c #C7B4A6",
"J. c #DBCE99",
"K. c #E8D79B",
"L. c #EDDC9D",
"P. c #D9C1A2",
"I. c #E3C7AC",
"U. c #F9C1AA",
"Y. c #EDDEA2",
"T. c #E9D9A9",
"R. c #F2DEA3",
"E. c #F1DFA9",
"W. c #EACEB6",
"Q. c #EFD6B9",
"!. c #F4D9BC",
"~. c #FDDBBE",
"^. c #EEE2A5",
"/. c #EEE3AB",
"(. c #F5E3A6",
"). c #F9E4A6",
"_. c #F7E8A7",
"`. c #F4E4AB",
"'. c #F8E5AB",
"]. c #F5E9AE",
"[. c #F9E9AD",
"{. c #EFE3B2",
"}. c #F4E6B2",
"|. c #F9E6B4",
" X c #F6E9B4",
".X c #F9EAB4",
"XX c #F4E7BA",
"oX c #F5EABB",
"OX c #F9EBBA",
"+X c #FBF0BB",
"@X c #F8E3C4",
"#X c #F6ECC3",
"$X c #FAEDC4",
"%X c #F6EFC8",
"&X c #FBEECB",
"*X c #F5F0C2",
"=X c #FCF2C5",
"-X c #F7F1CD",
";X c #FDF3CC",
":X c #FEF8CE",
">X c #ECEAD1",
",X c #FCEFD0",
"<X c #F0EBDB",
"1X c #FCF4D2",
"2X c #F9F6D4",
"3X c #FAF5DD",
"4X c #E1E3E1",
"5X c #FCF4E3",
"6X c #FCF7E8",
"7X c #ECECF1",
"8X c #F7EFF0",
"9X c #F7FAF7",
"0X c #FDFAF3",
/* pixels */
" X X XOX X X X X X.X.X.X.X]. X X XOX}. X X X X XoX}. X X X.X}.}. X X X.X}.+XJ. X}. X X.X X+X X X X X X X X X X.X X X X X X X X X",
" X.X X X X X}. X X X X.X.X.X X X X.X X}.}. X X.X.X}. X.X.XoX X X X X X X X}. X X X X XoX.X.X}.{..X X X X X X.XoX X.X X X X X X}.",
" X X.X X}. X X X X}. X X}.}. X X.X X X.X}.}.}. X X.X X+X X X X}. X X.X}. X}. X X X XOX X X X X X X.X X X X+X X}. X X}. X X.X X X",
" X X X}.}. X X X.XoXoX.XoX X}. XoX.X X X X X X XoX X X}. X}.}. XOX X}.OX}. X X X.X X X X X X}. X X X.XoX X X X}. X}. X X.X XoX X",
" X}. X]. X X XoXOX%X*X;X;X=X=X;X#XOX X X.X.XOX X.X.X.X X}. X X X.X X}.}. X X X X X X.X.X.X.X X}. X+X X XoXOX}..X/. X X X X.X.X X",
" X X X X}.oX=X-X;X-X:X=X=X#X#X#X;X;X;X#XoX}.]. X X.XOX.X X.X X X X X XOX X XoX X X X X X.X}.}.XX}.oX#X#XXXoXoXoX X X X]..X}. X.X",
" X XoXoX-X2X-X;X-X X/.`.`.(.(.(.`.`.%X-X:X*XoX XoX X.X XoX.X X XoX.X X XOX X.X X X X X X X X#X:X;X:X$X$X;X=X;X1X;XoX+X X{.oX XoX",
"oX*X-X;X;X;X:XoX{.`.(.).).(.).).).(._./.OX&X1X=X+XoX X X.X X X X X.X.X X X X.X X X XoX*X*X;X,X$X}.^.`.].`.`.`.].=X-X2X-X*XoXoXoX",
"1X-X1X2X;X$X}.`.(./.`._.(.(.'.`.'.(.L.).E.}.#X1X;X#XXX XoX.X}.}. X.X.X X X X X X XoX=X1X,X&X X`.'.).(.Y.).).(.(.]. X=X2X;X2X2X:X",
":X;X=X}.`.(.(.(.).).(.).(.(.(.(.(.`.(.).'.).).|.=X:X2X&X$X}.}.].+X+X X X.X XOX-X;X2X;X*X[.E.`.(.E.(.(.(.`.`.].(.).(.)./.+X=X;X:X",
"}.E.`.).(.`.(.(.(._.(.[.[.[.`.'.(.(.(.(.(.(.E.(.`.}.;X1X1X1X1X1X-X*X-X=X-X-X1X-X1XOX}.E.(.(.(.`.'.'.(.[.`.(.(.(.(.(.).^.`.`.`.}.",
"'.`.).R.(.`.(.(.`.].}..Xn.- [..X}.[.`.).`.(.(.).(.`.`. X*X;X1X2X1X1X-X2X1X-X=XXX}.(.`.(.`.(.`.].(.|.; n.[..X]._.`.`.`.(.R.(.`.`.",
"(.(.L.`.(.`.`.}.].}.6.o.R R &X.X.X.X].].`.`.(.(.).E.E.R./.`.`.}.oX X.XOX].`.(._.L.E.(.`.`.}.].]..X&XE #.I 6..X].].].(.`.).(.(.R.",
"(.`.`.`.`.].`.}..XJ o.R o.@.}..X.X X.X.X}.].`.`.`.).).'.`.`.`.`.).).(.E.).R.(.).(.(.`.}.}.}..X.X.X}.T Y R R G .X}.}.`.`.`.`.(.Y.",
"`.(.`.`.}.}.oXP.Z R R O.R 0 <X}..X X X}. X X}.`.].].`.`.(.(.(._.(.(.(.L.).`.'.(.(.OX`.}.}. X XoX.X.Xw O.R R R f I..X X].(.`./.Y.",
"}.].}.}. X X.X) P Y R R R 8X4X, .XoX X.X.X}.]..Xr -.} A.(.`.`.`.^.`.E.].6 >.2.[.[..X}. X X}. X X, .X5Xo.R R O.P ! }.}..X}..X.X.X",
".X.X]. X X XB.X.R R O.I 4.7X0XP : |.oX.X X X}.q.G.6X6XD.].].`.`.`.].`.b `._.:X_ S. XoX.X X XOX> R 3X>X@.R R O.W o.V..X X.X X.X.X",
" X X}. X X X/ o.O.R R R m 9Xm.L %.|. X XT.}.`.G.0X0X0X9XN }. X X}.}.P.1X3X3X3X3X8..X.X.X X X X%.R n.6Xn R R R R R / oX X X X X X",
" X X+X}.`..X' R T R R R e 9X@.Y O..X X X X.Xy.6X9X<X9X8XF. X.X X X Xj 6X5X4 }..X| .X|.|..X.X}.:.R -.3Xe R R O.R R ]  X X X+X X X",
" X X}. XoX|.J o.O.R R Y v N.o.O.O..X X}.}.|.}.U.6X$ H.5 e.}. X X X X X3X1 3 Z.+Xc..X.X}.XXXXoX:.#.R C.n R O.R R R J  X X X X X X",
"}.+X X X X XF o.O.R R O.5.K R R J  X X X X}.}.x ~.$ o w. X X X X X X X; 1 2 2 ^ }.oX%X-X&X1X1X..,.:.} *.O.o.R W R S }..X X.X X X",
" X X XoX X.X] O.O.R R O.3.I R O.+. X X.X X}. X XA.i.9 j. X XOX.XoX.X X X8 j.z *XOX1X1X:X:X;X-X+.:.%.1.l.O.O.O.R R  .}. X X}.}..X",
"]. X X X X X_ R O.R R T 6.I R O.d }..X XOX.X X XoX X8.<. XOXoX.X X XOXB.<.^ oX$X;X&XXX`.(.^.(.b #.,.,.l.O.O.O.R R h .X}. X}.}. X",
" X X X X]. Xw { O.R O.R i R o.[ ;X:X-X&XoXOX}. X}.}.q.8. X X X X.X.X}.M.0.oX:XOX`.(.(.`.`.'.(.'. .O.:.p O.O.O.R X.w oX}.]. X X.X",
" X X}.oX=X=X;XA 8.R R W t o.G l `. X-X;X;X1X%XoX X.Xx y | O.X.R R :.>.-.7 =X}.`._.).(.`.`.`.`.E.r.J R u R R R :.( oX|..X X.X|..X",
"#X%X:X;X#X}.`.).6 ! ..9.{ _ s.).).(.^.].}.#X1X1XM T P @.I R O.Y R R Y X.,.R >.& ).'.`.(.).E.'.[.(.b.( { 9.{ ! w -X&X XXXXX}.}.XX",
";X&X/./.`.(.'.(.^.s.T R 3.(.(.`.`.`.`.(.).`.m C R R R R O.o.I R R R I O.O.R R R Y * ].(.'.`.E.(.`.`.'.-.K o.u. X:X1X1X:X:X;X1X:X",
"`.(.`.(.).`.(.(.].}.:.R I }.}.}.}./.).(.I.<.R O.R R R R X.E R R R O.=.#.>.R R R o.R 2.}..X.X.X[..X.X].R T #.(.(.`.|.=X;X;X;X:X#X",
"(.R.(.`.E.`.].].].}.{ R I ;  X X}.}.(.@ o.R O.O.R O.R R I . o.R R 4.X Y R R R R R O.R W C.oX.X X}.}.# R R V `.(.(.`./.Y.E.^.^._.",
"(.R.(.`.(.`..X X X}.a #.R *. X.X X X; R R R R R R R R R O.T O .   q o.R R R R R O.R R R R v. X X}.}.&.R T e `.(.`.E.`.).).).(.L.",
"`.`.`.[.].}.}. X X X.XV Y 7.@.>  XT.R X.R R R R R R R R R R E X.O.R R O.R R R R R R R :.R R  X X= >.;.C Q }.}.`.'.(.(.`.`.`.].E.",
"].`.|..X.X].}. XoX X X}.u u o.Y ;.7.R R R R R R R R R R R R R R R R R R R R R R R R O.R R R 1.K R W u u .X X X|.'.).(.(.(.(.`.L.",
"+X X X X.XoX X}.}.}. X.Xs T R X.4.U R O.R R Y R R R Y R R R Y R R Y R R R R R R R R R R O.R R 6.W R X.s .X}..X.X X.X}.}.}.}.}..X",
" X X X X X X X X X}. X X X: ..O.+ R O.R R R R R Y R R R Y R R R R R R Y Y R R Y R R R R R R R + o.J < {..X.X.X X X X X X X X X X",
" X X X}. X.X}. X}.}. X X X X X~ Q O.R R Y R R R R R R R R R R R R R R R R R R R R R R R R O.X.g g.}.{.XX.X}. X}.}. X X X}. X X X",
" X X}. X}. X}.{.OX X X.XoX X.X.XV.#.R R R R R Y R R Y R R R Y R R Y R R R Y R R R O.R R R O.O.V.;X;X;X;X%X#XoXoX X XOX X X.X X X",
".X.X.X.X.X`.].}.oX&X-X;X1X;X&X&X#X_ R R R R R R R R R R R Y R R R R Y R R R R R R R R R R R _ 1X,X1X-X1X1X1X,X&XoX X}..X.X.X X X",
"oX.X X.X}.oX=X:X;X:X1X:X;X:X1XI.x p Y R R R R R Y R R Y R R R R R R R R Y R R Y R R R O.R O.! r S.XX}.XXOX#X:X1X;X+XOX X X.X].].",
" X.XoXoX=X;X=XoX{.].[.(.(.`.-.W Y } A o.R R R Y R R R R Y R R Y Y R R R R R R R R R R O.Y G 9.Y o.2.(.(.[.(.].oX;X:X*XOXoX X X].",
" XoX=X:X#X}.`.(.(.(.).).(.q o.J _ o.7 G R R R R R R Y R R R R R R R Y R R Y R R R R O.o.G t B G G I * (.(.).(.`.].XX=X2X=XoXoX}.",
"1X:X=XXX].E.).).(.).`.(.`.K T / ).(.E.$.J O.R R R R R Y R R R R R R R R R R R R O.R R R 6.`.E.R.d.U K (.(.(.).).(.(.`.XX&X;X&X&X",
"OX}.E.`.).E.).E.(.(.(.(.c R ,.).(.x.1.<.g.A o.R R R R R R R R R Y R R Y R R R R R R K z.;.:.c./.`.O.T m }.`.(.(.(.`.(.`.`.}.|.$X",
"`.`.(.(.(.`.).`.`.}.}.}.T O.q (.0.R 1. .j d.G O.R R O.R R R Y R R R R R R R O.O.O.A / : G :.L c.}.q R O..X].]._.`.(.(.(.).).E.E.",
"(.(.(.(.`.`.`.[.]. X}.!.T L ].].W G O `.* 8.7 ] G :.R R R R O.R R R R R R R R ] ` i R - .X% A R @X|...U !..X]..X.X`.`.(.(.R.).).",
"R.(.`.`.].]..X[..X X X&.,.W.}.n O._ [..X:.G H < c ' D ` O.U R O.R O.U O.U Z D ! a G G O..X.XD O.v .XW.:.h..X X.X.X].}.[.).`.(.(.",
"(.`.].`.}.}..X}. X X].<.a  X}.%.R ~ }.}.@.U E.`.`.^./ ' ) ` S D S G D S _ / ].[.].].X.:..X.X/ O.{ .X X@ 2. X X.X.X.X}. X|.(.(.(.",
"}.}. XXX X.X.X X X X}.a. X X XO.R r. X}.R ] .X].`.].].`.`.Q.l @ & k '.'.}.}.`.}.}.}...O. X Xs.O.;. X}.}.p..X.X X X X X X X X}.}.",
".X.X X X X X X X}.}.}. X X X}.O.O. X X XR X. X.X X X}.].]. X]. X.X.X|..X}.}.OX}. X}.o.O. X.XoXU R  XOX}. X.XoX X.X X X}.}.}.}.}.",
" X}..X X}..X.X X X X.X X X XoXE 6. X X}.X.#. X/.+X.X X X.X X X{.}..X.X.X}.}. X X X XO.Y  X X}.k.:. X X X X X.X X.X X}. X}. X XoX",
" X}..X X}.}.}..X X X}. X X X.X#..X X}. XX.U }. X.X}.}.}. XoX X].}. X X X}. X X XoX X..R .XoX}.!.R  X XoX.X.XoX.X X X X X X X X.X",
"OX.X X X|.|.(.]..X}.}.}.}.}..X= .X.X[..Xo./ }. X}. X X.X X X X X.XoX X}. X.X.XOX.X.Xf.o. X X X X# }.}..X}.}.oX X X X}.}. X}.}..X",
".XoX}. XoXXXoX$X*X;X;X1X;X;XoXOX.X.X X}.K y.}.}. X}. X X X X X X.X.X X X X X.X X{. Xt.-.}. X X X}.}.oX X}.}..X X X X X X X}. X X",
".X X}.oX=X-X1X1X1X:X;X:X:X1X-X*X=XXX}.OX3 .X.X}.}. X}. X X/. X X.X.X X}.}. XoXoX=X:X;X2 :X;X1X1X-X-X&XOX}. X X}. X X X X X X X X",
"oXoX;X;X1X:X$XOXXX/.`././.`.OX=X;X$X$XXX X.X.X}. X}.{.^.+XoX X X.X.XoXOX$X#X;X=X*XOXXXXXXXoXXX@X$X;X;X;X;X$XXX X X X XoX X X X X",
"oX&X;X&X&X.XE.(.).(.(.(.).).).(.|.OX1X;XOXoX}.}.}. X{.]..X}.}.}.].}.oX$X;X$XQ.}./.(.R.(.(.(.).).).(.oX&X;X1X1XoXoX.X X X X}. X}.",
"2X:X:X}.`.(.`.(.(.(.].(.(.(.(.(.(.].}.*X;X;X;XoXoXoXoXoXoX}.oX#X;X:X=XOX].].(.`.`.R.(.`.(.(.(.`.(.'.(.`.}.#X;X1X:X=XOX}.oXoXOX;X",
";XoX].K._.(.(.`.`.`.(.`.`.(.(.`.`.(.^.Y.oX=X1X1X;X;X-X:X1X;X;X2X-XoX`.(.).`.(.`.].].E.'.(.`.`.`.(.`.).(.).^.}.oX;X1X1X:X-X1X;X1X",
"/.].(.(.(./.]._.(.[.].`.]..X].`.`.`.`.`.`.`.`.XXoX;X=X=X;X*XoXoX/./.`.).`.`.`.`.(.(.'.(.E.`.`.(.`.`.(.(.).Y.).(.`.}.=X-X;X;X&X$X",
"_.(.).`.`./.}..X}.}.}..X}./. X}.(._.E.).(.`.`.(.(.(.).^.(._.(.(._.(.(.(.(.(.E.).`.(.`._.).'.(.].].`.^._.^.].`.(.(.`.Y.`.`.`.(.L.",
"(.(.`._.}. X X X X X.X X}..X X X}.|.'.E.`.`.E.(.(.(.(.K.R.[.).(.).(.(.).`.`.`.].`.}.}.}.|..X X}.}.`.`.`./.`.`.(.(.(.(.).`.(.(.(.",
"`.`.].}. X X X X.X X X X}..X X X X X}.[.'.`.`.`.].`.(.[.(.`.`.`.(.(.(.(.(.].]./.].}. X X X}.}. X X X}..X].].`.^.].`.`.`.`.(.`.`.",
"`.`.}. X X X X X XoX X X X X}. X X X.X.X|.].`.].].`.`.E.`.`.`.`.].].`._.}.}.}..X.X X}. X X X X}. X X}.]. X.X].].(.`.`.`.`.`.`.(.",
"}.]. X X}.}. X X X X X X X X}. X X X.X X.X|..X].].].].`.].].(..X}..X}.+X}. X}..X X X.XoX X X X X X X X}.}. X}.].}.].].`.`.`.`.].",
"]. XoX X X X X X X}. X X X X}.}. X X}.oXE. X.X}..X.X}.}..X.X XOX}. X XT. X X X.X.X X}. X X X X X X X X X.X.X}.].}..X X X}. X}.`."
};
