/* XPM */
static char *_b3bd6aad90d4d6d82380eff0c9caea8A8LtIStLZEJM0605[] = {
/* columns rows colors chars-per-pixel */
"64 64 73 1 ",
"  c #EDDEA4",
". c #EDDEAB",
"X c #F1DFAE",
"o c #EFE0A6",
"O c #EFE1AC",
"+ c #F3E4A6",
"@ c #F7E9A7",
"# c #F3E4AC",
"$ c #F8E6AD",
"% c #F6E9AD",
"& c #F9E9AE",
"* c #EFE1B1",
"= c #F4E6B3",
"- c #F8E7B3",
"; c #F6E9B4",
": c #F9EAB3",
"> c #FCEDB2",
", c #FBEAB4",
"< c #F9E9B7",
"1 c #F8EAB6",
"2 c #F8EDB6",
"3 c #F8EDB7",
"4 c #F2E5B9",
"5 c #F3E6BA",
"6 c #F5E7B8",
"7 c #F5E6BA",
"8 c #F4E7BD",
"9 c #F8E7B9",
"0 c #F3E8B9",
"q c #F6E8B8",
"w c #F4E9BA",
"e c #F5ECB8",
"r c #F5ECB9",
"t c #F7EDB8",
"y c #F6EDBA",
"u c #F4E9BC",
"i c #F6EBBD",
"p c #F6E9BF",
"a c #F7ECBD",
"s c #FBEBB8",
"d c #F8E9BA",
"f c #F8EEB9",
"g c #FAEFB9",
"h c #F8ECBA",
"j c #FCEEBA",
"k c #FFEFBB",
"l c #F9EBBD",
"z c #F8EBBE",
"x c #FBECBC",
"c c #FBEFBF",
"v c #FEEFBE",
"b c #FFF0BC",
"n c #FEF1BD",
"m c #FCF0BF",
"M c #FDF1BF",
"N c #FFF1BE",
"B c #F7E4C2",
"V c #F8E7C1",
"C c #F6EAC0",
"Z c #F7EBC0",
"A c #F9EDC1",
"S c #FAECC0",
"D c #FDEFC1",
"F c #FCEDC2",
"G c #FFECCA",
"H c #FBF0C2",
"J c #FFF1C0",
"K c #FFF4C1",
"L c #FFF4C3",
"P c #FEF3C4",
"I c #FFF3C5",
"U c #FFF8C5",
"Y c #FFF3C9",
/* pixels */
">:&%%%:;;;2%e%eO%@@%%;22eee;600e;;-$--$--::,,$#=;;*5q;;2;%%%;%&%",
"::::1;::22e;e%%e2;%%%%Oee2;e;e;q11:::$-%-&:,,:=%f2eeefef;=;%%;%%",
"1;;11;;1;==0eeeOf2;=%O%O2;2;;;;:::::-%%-=::1,1-:;00;;*;;;%==::::",
"qq6q66dd;qe;eeeeef6-e0e0;e;2;;;;::1:::-=:::1::::e2ee2q;;;;;;;1;;",
"pp5556zADDDvafPKSSSzzqqq;;1;%;%=111;;1::;221;;==2;ds211;;;q;;;q;",
"ppuuCCADPDvdee1;DDADzzq-e;;f1%:;:d;f;dq;q;;d;;2e12d111q9q0;;5;56",
"pCCAcAPNcd-=#X#=-qAdfvfde;qq;;;;;q6q69qeqe91mecmNNvjNNPNqHea0000",
"qCHPPPvv==#+X###O#=1jNNN2qqf9dz9qee;ecfqq;eecNNP=##X#==-NNPHaaa0",
"UPKKN:=%###++X+ @++X%%2Nvvz868VVNeqeqqfeqfPKKA;9$XXXX#=X=56NNHYU",
"mPff:##X#++++++@++ + %:1DDGYGGB56qqqefdNPNPe5*=.XX$$=#X=.=49amHH",
"%%%## +#+@@@@X@@++++++##-zSGYGGVePNNNNNNPv;=.**#$$-X#==##.===;;=",
"###o######$$@@@@@@@@@+##X=99SFYYKNNNNjj1#==##=##=$$X$=#==#X=*#*=",
"#O##X$$$%%&&$&&&&&&@####%#XX+=;;2d911=##OO#=-::%=%=$=%=%$#$$####",
"####$X#-=:1:$::,1-::$#%###%#++#+#%#####X####%=1,$====%$:$$#$#++o",
"$X#9----111d69;1-9-=--$$+##@+++++#####$=:=%##-,>=:::%:::$#$&$@+O",
"---=-d-111deq99-99-1=:,,,$@+++++##+ ###-=%=-1---;;::::::$$&&$$$+",
"--;;9eeqf6d9;;q;;;;:;;::;%:%%%%%%@@%%%%;;22;;==*;;;;;2:;%=%;;%2;",
"--;;=;2f;62;0;;;=1;=%%;;=:;;;%%;%%%%%%;2;2qefepe;;2ee2e=;e;;;2;2",
"6;;99;;f2;;;;;;;1::==%%::=::%=%%%%%;2;22;2quq05*;;;222;:;;;;;;2;",
"qd;;;;;2f;ed;e;;=2e:;;=;:;2;;::eeee;;;qq;qqqqC96#%;;;;;f;;;;;;;;",
";q2;9;;;22;;;;;;==;;;;22;qf2;;11eqq06qqqCpcDPPYYAf9;;;qqq;=9;;;q",
";;;;e;;;;;;;;-;:=9;;==;;;qd;d;;feeq0q;C6PPPNDPNPUKvcp;;9qq;9e=;;",
";;:=:16eNe22fd2d;qqd99;;-qddd;ddp6Cqddddva99;**OeqNPvcd;;q;6q=*;",
"1;:==12jNNNNNNNjNPNceqq;;1dd;ddAqcqqddmp=##OOO%#.=qNPNjdqq;59==5",
"-11djjbj-9#X#.##==9NNNmvq;;q;;;6--12s;=###+O#+%#====-svPez11--6d",
"jjss:=%=%###XX.X===0eemevAfceN;ffvNs:&#.###+++++X=.X=1ssPNjjd111",
"j1>:###X###=%##OOOO*;0eeNNNNNNNNvN1:##+#@++@+%+##=X#X#=-jjbbNjNN",
":%%#X#####=#==##===OOOOO1;1dffcf:&@#+#+##@##@@@@-==#X=#==:1sbNjj",
"##X###%-==$:::$%===%#OOOOOO#;O####+X.X##$&$#&$%&&::%####X##%##oO",
"+X####%-$--:-:::%;;==;#O##;OOOO+##XX###%--1-1:::$:-%%%## +X+#+o ",
"###=-=$%:,:::-,:;:%=#;##=O%O#OOOX#XX=X9=9X911---$&&&&&%%++######",
"##-$-&:-1:-$%=-:Ne=%#OO;OOO OOO#..X-X9X9==96--9-:&:ss:$$%##@++  ",
"%2%%%%%:%=;;;e;;=8u;0;==0OO#OOO.X94O**..*=**00;0e=;%=;;%2%%##%%e",
"%%;#%=2eO;;;;;;0000q555;0O0*O;99=5==6.5***000eap;0;;;;f2%;;#@O%%",
"e%;;;;q9eeeeNmemqq;0q0qf0;;*0;;;9-596;56zq;90eeeq;qe;;=;2;=eee%%",
"0e;;0;=-;*=50=66;up0;qq6e0e=0;;1==-9dddq;ee9efecHmHHccp6qe;;qeee",
"ep0066zzaczcamcpHeff211;eqedd;ff0u0;;;q;=-fvvPPvKPPPPPPDDA660qaa",
"aaqCSzDDPPPvKNNNNNjN2f11e2q;qddd;*;;qqqqdvDPNvvc=1;cAvDAPDDz005C",
"zzAAdPAS**===*9*:22f2sff1d;qqqd;;0;q2fecDvvdd1-XOOOO==5=DDvzzzq6",
"dzvvv15.===#### +##::jvN;;;;6d6-0;22deNN11=##XX$=#*O##==-dvvDDeC",
"Nv1:=#######+#+##+ ###=:jNvjvvvzebNNj2;=O==XXXXX& @##+ ####=91vN",
"d:%##.####+#+@+#+#O+#####=-d,dsse;2e;#######-#$$#+%@+#######%=::",
"####+##+#@@#@@#@# %#########==-=O%@O###XXX#=$::&@@&&&@#@++++####",
"+++##@###%&&%@@%###%##+###########O#######$#&:::%%&&&:&$#### + +",
"+ ##%$%:&$-$:&-$#%%%#########OoO#O+#X+#$#%%&::2&::::s:&::&$%##X+",
"###%=&::---d1,-==--=1#%####@+++o%#X##$#$:&:%:&%&:1::1d1,s::$%%##",
"#$%--::1--99-d91---$-$%-##@#+#+@###$$$$$&-:::%%;-911--ss>1--=$$%",
"$-:-$----1s999911:::=:::$#%%@#%%@:&:$$-&%%%::22269999-dj--=-%==$",
":&;%%;:221;-;ddN;;1===;;%%;;%=%#%2%e2%;;%22;%;%;d699=;q;;1%Oee%2",
"%%%:;=%%::;;;;;;;2;;;;;;0;%ee9;;2;%;%;%222%%2%;==1e;fe;;;=%O%%%2",
"::;;-;==;;qq9--9;f22;;%#e0e22ee;;;6#;;;;2%;;;;1;;;;;e;22;#;;O;%e",
"9d;;-;pvcvcvAcc8;;;1;qe=%#;;q;;;2e;;;;9;#;;eeeeca;=9.9;f;;;;e;;%",
"p;pzSDDPPNPHDAPNfdf1q;q6;;;;5;;qe;qq;zdve2NavNADPNNe2;;q;;;1ee==",
"5CDPPPz66q5*=9qmvvddq6;-*;;q;=-5=;qqAvvPPppee6;=ecNKKN;=ddddee;2",
"zzPPD695**OOOOO=9qdcvq;6qeq;5-6;;;efffq;===**OO.=22NNNccvfddd6pa",
"PPzd59=.=6===O#O#=dvNPvceqqq;qq-jbNv2;OOOOO#*#=6OO##12NNvvddzzzm",
"beqOO##OO##O@ O%==X6-qNNNPPPPPNN1:##o#%O#### # ####=#X=1zvPPYPDP",
"eOoOOO###%#@%%@%XXX.=-1ddsjdvjfd@#%+@o+%+#++#++##=#XXX=-d1ddvzx9",
"oOO@@%@%%%%%%@@%#==#X=X#%=#===###+++ooo@@+@@@+%+#=##X##=#===9-9=",
"o@%O@e2%%%%%%%%%%-==##X.XX#X###+++#+@@@o@$##%@@%=#=###X=#XX#.X#X",
"%%O%;%%%%;%1%%%%%%#%##X+############%#%#&$&%%&%$,-$=$%%%$#######",
"o%%%=#%;;==;%e0e$&=&######+######%-#%:%:=$:%$=:$,:::-:=%$#@####%",
"%O%e=#;;;2q;;00;,,,:&&&&$$###$$$---$--1:----1---,-$:,--$$%@$$+@#",
"2%ee;;;e;qqqCqee,&@&$@#$:&&%$&&$---==--1-1=-----1-%-::$#&&&&$$@@"
};
