/* XPM */
static char *d2FsbDY0Lg__[] = {
/* columns rows colors chars-per-pixel */
"64 64 246 2 ",
"   c #003C69",
".  c #003D7B",
"X  c #003F72",
"o  c #02446F",
"O  c #03456A",
"+  c #034573",
"@  c #004C76",
"#  c #0C4B76",
"$  c #01447D",
"%  c #024D7D",
"&  c #0B4C7B",
"*  c #0A4675",
"=  c #124C73",
"-  c #124E7D",
";  c #0B5376",
":  c #04537C",
">  c #0D537D",
",  c #065377",
"<  c #11537D",
"1  c #14567C",
"2  c #14617E",
"3  c #003D87",
"4  c #004383",
"5  c #014C83",
"6  c #0A4D83",
"7  c #00458B",
"8  c #014C8B",
"9  c #094989",
"0  c #134F88",
"q  c #025284",
"w  c #0B5384",
"e  c #0D5A84",
"r  c #02548B",
"t  c #0C558A",
"y  c #045A8C",
"u  c #0B5B8D",
"i  c #005A84",
"p  c #125584",
"a  c #145A84",
"s  c #1A5C84",
"d  c #13568B",
"f  c #145C8B",
"g  c #1A5D8C",
"h  c #195585",
"j  c #004C93",
"k  c #004792",
"l  c #015493",
"z  c #0B5391",
"x  c #025B94",
"c  c #0C5C93",
"v  c #01559B",
"b  c #015C9B",
"n  c #0C5D9B",
"m  c #135D93",
"M  c #1B5D92",
"N  c #125E99",
"B  c #165896",
"V  c #215F93",
"C  c #03628D",
"Z  c #14618B",
"A  c #1A628C",
"S  c #196184",
"D  c #046394",
"F  c #0C6393",
"G  c #0C6994",
"H  c #04629B",
"J  c #0C639B",
"K  c #0D6B9C",
"L  c #026C9A",
"P  c #136394",
"I  c #1C6393",
"U  c #1D6993",
"Y  c #14649B",
"T  c #1B649C",
"R  c #136A9D",
"E  c #1B6A9C",
"W  c #126997",
"Q  c #15719E",
"!  c #24648C",
"~  c #2A648B",
"^  c #2B6A8B",
"/  c #226594",
"(  c #246A95",
")  c #2A6B94",
"_  c #23649B",
"`  c #246B9C",
"'  c #2B6D9B",
"]  c #286795",
"[  c #346E96",
"{  c #2D719D",
"}  c #23779D",
"|  c #33749E",
" . c #367699",
".. c #015CA3",
"X. c #0A5FAA",
"o. c #105EA0",
"O. c #0363A3",
"+. c #0C64A3",
"@. c #026AA4",
"#. c #0C6AA4",
"$. c #0364AA",
"%. c #0B64AB",
"&. c #036DAA",
"*. c #0C6BAC",
"=. c #1364A3",
"-. c #1C65A2",
";. c #146BA3",
":. c #1B6CA4",
">. c #1265AA",
",. c #136CAC",
"<. c #1B6DAB",
"1. c #0274AB",
"2. c #0C73AC",
"3. c #0A76AA",
"4. c #1472A5",
"5. c #1C72A5",
"6. c #1C79A6",
"7. c #1473AC",
"8. c #1C73AC",
"9. c #1379AB",
"0. c #1C7AAC",
"q. c #1678A7",
"w. c #046CB4",
"e. c #0C6DB2",
"r. c #0B69B5",
"t. c #136DB3",
"y. c #1B6EB4",
"u. c #1869B8",
"i. c #0475B3",
"p. c #0D73B4",
"a. c #037BB4",
"s. c #0B7BB5",
"d. c #0574BB",
"f. c #0C74BB",
"g. c #0C7BBB",
"h. c #047ABB",
"j. c #1473B4",
"k. c #1B74B3",
"l. c #147BB4",
"z. c #1C7AB5",
"x. c #1475BA",
"c. c #1B75BB",
"v. c #147BBC",
"b. c #1B7CBC",
"n. c #2266A3",
"m. c #236CA3",
"M. c #2B6DA2",
"N. c #226BAA",
"B. c #296BAA",
"V. c #2373A4",
"C. c #2C74A4",
"Z. c #2C7BA3",
"A. c #2373AC",
"S. c #2B74AB",
"D. c #247AAC",
"F. c #2B7AAD",
"G. c #237CA4",
"H. c #3376A2",
"J. c #337CA5",
"K. c #377AA7",
"L. c #226DB2",
"P. c #276CB3",
"I. c #2375B3",
"U. c #2A76B3",
"Y. c #237BB4",
"T. c #2A7CB3",
"R. c #2475BA",
"E. c #237CBB",
"W. c #2A7CBA",
"Q. c #2876BE",
"!. c #337DB4",
"~. c #347CB7",
"^. c #0B76C2",
"/. c #0C7BC4",
"(. c #057CC2",
"). c #1376C2",
"_. c #1A73C4",
"`. c #147CC2",
"'. c #1B7DC2",
"]. c #147EC9",
"[. c #1B7DCA",
"{. c #227DC2",
"}. c #297DC1",
"|. c #267BC4",
" X c #216FC1",
".X c #1C82AD",
"XX c #0B83B9",
"oX c #1B81B6",
"OX c #1482BC",
"+X c #1B83BC",
"@X c #1C89BD",
"#X c #1586BA",
"$X c #2A82AE",
"%X c #3781AC",
"&X c #2481B3",
"*X c #2B83B5",
"=X c #2382BC",
"-X c #2B83BC",
";X c #238ABC",
":X c #2B8AB8",
">X c #3383B4",
",X c #3384BB",
"<X c #348CBC",
"1X c #3888B8",
"2X c #3391BE",
"3X c #0C84C4",
"4X c #0C83CA",
"5X c #0F89C9",
"6X c #1483C4",
"7X c #1B83C4",
"8X c #158BC5",
"9X c #1C8AC4",
"0X c #1384CC",
"qX c #1C84CB",
"wX c #158CCB",
"eX c #1C8BCB",
"rX c #1B91CC",
"tX c #1990C7",
"yX c #1C8BD2",
"uX c #1789D5",
"iX c #1C92D3",
"pX c #1793D1",
"aX c #2383C3",
"sX c #2A84C3",
"dX c #248BC4",
"fX c #2C8AC4",
"gX c #2485CA",
"hX c #2B85CB",
"jX c #238BCC",
"kX c #2B8CCB",
"lX c #3286C4",
"zX c #338AC3",
"xX c #3387CB",
"cX c #2392CC",
"vX c #2A92C9",
"bX c #3492CB",
"nX c #3D95C5",
"mX c #248BD2",
"MX c #2C8CD2",
"NX c #258AD5",
"BX c #2392D2",
"VX c #2C92D3",
"CX c #2796DB",
"ZX c #3294D4",
"AX c #3495D7",
"SX c #4493C4",
/* pixels */
"x 9.;.4.q.#.4.H K Y.;.q.r z.4.3.a.a.a.a.3.#.R W F y A.8.*.z.p.l.q.&X4.5.5.u q c N E E E n.E c B d B 3 9 n >.t...f.f.w.x.u.X.L.k ",
"#.-Xb.-XfXfXbXfX&XAXbXbXH E.-XdXpXuXiXeX@X+XE.W.8.l -XsXb.AXjXcXvXvXvXzXbX8.n A.I.T.U.W.W.8.8.Y.n.B.B B 7.j.x.x.qXqX7XjX'.{.|...",
"b k.l.z.=XY.fXfX=XfXfXkXr ,.b.+XuXuXuXqX`.`.|.xX|.j hXhXu.NX[.yXCXeXBXBXjXf.l t.c.u.c.{.b.e.j.R.:.5.8 x j.@.@.s.6X8X3XwXl.9XgXb ",
"O.z.z.l.c.l.b.aXsXb.b.;Xl j.aXv.].uXCXyXqX'.MXAXbXl MXMX_.NXuXNXCXeXCXBXMXv.j x.'.t.t.|.c.t.t.b.8.Y.r r l.3.&.v.6X6X6X#XOXjX9XH ",
"&.'.7Xb.'.'.7XjXmXs.x.+Xb p.jX6XyXBXBXeX@X#X@XdX;X5 OXdX2.jXjXAXVX@XZXhXkXE.8 I.W.=.<.I.<.;.-.;.;.T.r 8 I.E.j.c.'.b.aX7Xv.7X'.b ",
"j.l.aX+X7XaXb.kXhXb.aXaX$.*.sXkXhXaXdXdX;X@X;X:X;XC .X:Xq.-XfXzXfXfXbXfXzX-XN T.~.B.S.~.n.n.S.` Y T.u u T.~.~.W.lXR.lXsXb.fXoX#.",
"q q P u u u q F P q F P q % u Y B z 6 q y G G G G i i W q t m r c ;.Y Y ;.m 6 N M d M g X & V p @ Z @ , e w g g g % P Z y G C i ",
"F.F.>XV.F.V.Z E Z.E E V.F.V.V.m.~.B.N N :.D.D.5.G.$XV.T.S.n.B.d A.lXW.I.W.I.T.~.F.S.!.B.p M ~.K.} } Q $X} f / C.I 6 E V.Q $X6..X",
"E.z.sXz.zX7.$ b.=X,.Y.k.sXz.=XR.Q.xXX.j hXaX@X@XdXdXaXz.R.y.xXv %.AXgXNX|.'.{.aX}.}.c.}.8 y.I.7.2.3.z.+X8.Y.N.=.I.4 R.k.7.v.#Xl.",
"v.v.jX'.jXf.8 v.gXv.'.v.jXb.jXjX|.|...j gX7X9X9XOXOXOXv.{.R.xXv ..AX|.NX[.'.'.'.gXhX{.aX8 *.c.c.v.l.v.).x.c. Xc.y.3 c._.f.`.`.g.",
"d.x.qX`.[.w.k f.d.d.f.d.0Xf.).7X7XaXb l eX9XcXtXs.i.XXoXdX+XxXb b hX'.|.b.{.x.z.aXfX{.E.7 o.,.c.`._.`.u.u.u. Xu.u.3 u._._._._.).",
"j.b.b.j.b.*.r *.j.E.aXaXkXaXE.aXaXfX*.@.vXdXvXvX@X9.=X&XzX-X,Xo.n ~.I.Y.W.zXI.-XW.sXE.W.l =.<.k.c.c.|.y.|.L.I.<.L.7 L.Q.R.R.|.|.",
"g I A a A g % a a Z f g g g a t t m q 5 :.m Y m ` d M.M.M.V M.V d ' / I E C.P G.:.5.E :.y Y n P P U U e ( S S S S O s a g h g f ",
"g I I g I ] A / C.( / / p I ] U :.:.:.n.!.E B.B.M 4 V V _ V V V V _ g I Z T 5 5.5.5.;.:.:.8.<.Y E U S O A , 2 2 S ; 1 ; 1 ; < o ",
"7.aXfXaX{.aXfXaXfXE.=XaXl *.sX7X+XOXg.v.gXl.aX{.R.v |.}.hXE.sXW.~.~.I.W.I.7.x dXvXvXjXjXVXMXmXMXsXW.4.5 Y.Q 6.6..X} F.E V.:.m.z ",
"$.qXjX7Xf.x.`.f.qX`.jXjXj $.qX7XpX3Xh.h.eXx.mXgX).v u.'.hX'.b.b.sXY.Y.aXb.7.l aXjXqX6X/.yX0X0XqX[.b.p.8 ;X2.;.#.L 4.7.+.k.y.y.l ",
"$.`.eX7Xg.v.'.d.'.v.v.7X7 e.aX7XwX5XwXg.8X7XgX'.c.v %._.c.|.c.{.'.e.b.aXkX,.l '.7XVXqXeXyX3XuXyXqXjX..l b.b.#.z.#.>.o.*.k.c.e.j ",
"H z.&Xz.z.Y.E.Y.W.Y.k.W.4 :.E.W.z.l.+X4.z.k.W.T.I.r -.W.W.~.T.lXsXz.W.W.sX:.r T.T.fXW.-XaXoX7X@XaXaXO.x T.T.:.A.:.V.` I :.<.>.8 ",
"S ( ) ! { | ' { | ) / | + ] [ ( ! ! ) 1 ( ~ ' { H.; ! K.K.| | K.| H.H.| | ] a | H.K.Z.J.%X{ $X} C.{ g s ] ^ ~ ~ [ [ [ ~ ~  .[ < ",
"< s S > a 1 o < p < - ! O s h # 1 h <   s p 1 a S o , ( A A a , , s g < s p & g a s 1 1 , , S 1 a < & # = = = = =   = = X h < * ",
"Y.-XsXE.=X8.x j.b.k.z.{.t.{.aXk.P.P.-.l sXsX+Xb.l.l.+X9X9X9X@Xb H b.E.l.{.'.c.|.k.b.z.j.H H *XY.=Xz.E.E.8.8.I.A.-.5 ;.I.N.I.I.I.",
"j.v.aXb.aXe.8 p.[.x.f.f.w.x.[.[.u.u.v j hXgX6Xg.a.3X5X5X3XrXwXr b '.v.x.0X`./.^.0XqX].x.b b fX=Xx.x.x.v.e.t.t.t.j.3 %.|.c._.t._.",
"z.k.E.z.fXc.8 c.aX'.b.x.e.e.).aXL.L.v j kXdXl.g.s.8X8XwX8XcXBXb b +Xx.v.qX`.`.^.`.`.x.7.r y $X5.7.l.k.y.,.,.,.,.,.. +.c.%.z.t.t.",
"T.:.A.m.zXD.4 k.k.E.E.E.k.*.,.R.N.P.B 8 lX=X2.3.#X@X#XdX;X;XfXr y Y.4.j.b.j.b.x.c.k.8.;.% e J.( m.A.<.:.A.:.Y :.N.. <.I.-.W.N.<.",
"H.{ C.K.%X_ f V.C.1XK.U.!.V.S.C.n._ f m V.$X$X:X<X2X:X1X1XF.SXd : %X} >XT.A.*XA.A.m.Z.{ > 1  .^ H.{ ( ( ' C.' C./ t f C.H.M.M.H.",
"p g I M I d t M m ` T T P c T Y B M w q F W G W G y C i u w ` % @ Y q c r u c Y P t T s o 1 ^ s > < % : g d % : f % w N B t t 9 ",
"+.R.E.<.y.Y.E.b.,.,.,.7.b H z.7.l.l.3.2.l.3.2.j.7.b Y.=XsXE.E.8.l.+Xb.@Xz.j.b ,.k.>.;.=.y Y A.4.*X*X;.D Y.=Xz.aXz.l.k.b.j.,.,.b ",
"$.aXhXc.c.'.b.c.gXb.aXaXO.%.MX7XqXeXeX7XeX7XqXkXp.l aXgXgXaXx.b.mXjXVXAXMXdX8 c.aXk.z.E.7.z.=Xz.-XsXH l z.9Xv.jXqXqXqX'.v.7X'.*.",
"%.|.hX}.}.{.R.E.sXR.E.W.x b lXk.b.+Xv.j.z.z.k.sXaXj {.E.b.=Xb.ZXjX+XaX=X-XW.$ F.:.-.5.8.,.j.z.j.4.Y.G D :XkXl.7Xl.v.OXj.e.v.b.H ",
"..t.c.Q.E.R.<.I.W.A.Y.T.r c >X<.z.oXz.7.k.I.P.Q.I.4 I.k.z.z.l.vXVXcXvXvXbX1X+ C.` E V.A.I.z.z.b.4.G.D y z.dXz.b.+X7XaXb.z.E.E.O.",
",.|.}.hXxXlX}.lXI.N.A.F.c c T.5.0.z.z.k.W.U.U.U.-.7 W.-XkX;X@X9X8XvXdXzXSX%X+ ] H.H.C.F.=Xz.v.dX:X$XW D q.-XdXdXb.+X+Xz.j.z.z.H ",
"v >.y.-.<.U.N.:.Y Y -.:.t u S.R F R Y E B.B.-.N.n.8 :.8.z.0.oXoX4.E.H W *XC.+ { ' { ` R ;.+.O.7.q.Q D y H q.0.#.8.j.j.q.4.7.q.D ",
"c z z t m d . g M m B d B d m m f a Z % N E N.Y Y Y Y Y c P u 5 q E / T ( I Z m.f E P c % x b K D L L L D x c c N $ t y q C C i ",
"N.<.<.=.m.N $ N E m.B.N.>.=.>.<.} A g q F.*XsXl.E.E.E.I.5.A.V.M I >X!.F.>X>XT.<XV.Y.Y.T.n I.-XsX#XtXtX@Xl.0.8.A.=.5 N <.-.0.q.q.",
"x.t.t.,.,.l 4 =.o.>.y.<.%.X.r.t.;.;.r 4 c.'.`.f.`.].'.p.*.k.,.r l 8.<.>.,.k.,.k.%.%.,.x.l *.7X6XpXwXwX8Xv.x.t.t.X.7 +.x.e.e.&.@.",
"'.t.k.k.y.b 4 ,.+.>.y.y.r.%.r.u.*.k.b 5 p.p.i.'.`.x.f.*.%.k.>.5 l k.k.>.y.R.k.c.j.*.u.b.j *.gXqX0X6X3Xv.x.x.e.*.%.j %.c.j.e.O.$.",
"-.=.-.;.-.t $ T N T =.N o.o.o.=.J ;.y % 4.*.+.b.t.7.,.+.J :.Y $ 5 -.n.B n.B.:.U.<.N =.k.7 o.R.k.z.z.j.4.k.,.,.>.n 4 n <.<.<.=.=.",
"n.` m.` M.M 6 _ B.' ' n._ n.-.T T E x q Y.I.8.W.8.8.V.V.` C.' g p / _ V C.C.n.S.B.T n.U.z n.~.U.,XF.S.A.U.T.A.A.-.r ;.A.<.P.B.N.",
"+ & & * p &   6 - 0 p & * $ * 6 w 5 % $ W c c c q % $ w & > < # * h - h g 0 * g g 0 0 B 6 M B M f p 6 w u P u y x 5 n c 8 B 9 4 ",
"% f g p V ' g ' g M V M d d T M.5.5.*XD.W.;.8.I.Y r u P I I / ] _ ' _ _ M.d 6 B N T B n.N -.N -.T M c N :.0.0.9.z.4.Y.I.<.I.N.n ",
"$ N c <.N.J =.o.=.<.-.I.. o.y.k.b.v.7XgX'.7X7Xb.e.8 O.,.+.=.Y 8.T.-.I.=.y.<.4 =.,.y.>.>.u.y.>.u.>.k.b x 7XcXOX8Xh.OXh.qX7Xx.`...",
". x x +.,.b %.+.,.t.,.k.. X.y.k.f.x.].7X'.`.7X).v.j O.,.%.#.+.,.>.>.R.t.t.+.7 >.%.%.X.X.r.r.X.X.*.f.O.O.8XiXwXpX5X5X3X4X/.^.[.$.",
"$ P J =.<.;.k.k.<.y.,.<.3 n <.k.l.x.'.7Xb.v.b.b.E.l v ,.7.,.O.>.=.,.E.7.k.>.8 ,.,.,.%.u.t.y.t.t.%.*.O.H v.eX8XeX5X8XOXv.f.g.`...",
"5 T T P -.<.N.A.A.I.<.<.5 E n.A.k.Y.E.Y.=X&XW.=XE.r x 5.8.5.N.:.R ;.:.Y 5.;.8 n =.=.=.<.<.L.L.y.,.*.H O.l.#X#X9X7X9X9X7Xb.aXb.O.",
"& a a e I I P T Y E N I 6 f M M u W c u E E P E E 5 q Y P u Y u w Z u q P Z % u u t m c r m N c Y H c D J #.R ;.4.K ;.R K R W r ",
"g h I I I Y q Y N Y B M t t w d u c % @ u P t P E m P -.N n -.r : R E F W R W A.:.;.5.-.8 x =.c ;.+.H J Y J J ;.J q r r r c y x ",
"5.Y I.W.E.*.v j.c.b.k.t.y.<.<.<.k.z.b b z.z.8.E.aXsXaXsXb.b.gXO.b z.oX3.oX+X+XfXsXaXkXb.b %.'.x.qX'.aXgX'.b.{.{.c.l ..*.*.j.7.+X",
"j.*.aXkXgXe.v `.`.).r.r.x.t.*.j.j.p.b l j.b.e.v.p.'.x.].r.^.[.v @.6Xs.p.eXjX7X6XeX6XmX6X..w.mXqX^.f.].qX[.).'.[.x.j ..t.l.v.p.7X",
"1.8XOXi.MX).j _.[.r.^.f.f.).p.g.f.eXv j qX7Xp.qX'.f.6Xf.d.w.`.....qX`.g.6Xs.8X8XeXwXeXeX..e.[.[.qXf.eX7X7Xg.6X6Xh.8 &.i.`.v.v.i.",
"@XdX@Xp.jXj.7 t.c.r.u.t.t.x.*.l.7.;Xl l ;XaXb.dXaX+XfXaXaXl.z.b O.gX7X7XjXOXOXOX@X+XdXaXv %.c.x.aXl.aXb.7Xs.7XOXp.r &.*.v.b.l.j.",
"} $X} ( Z.C.t _ n.M _ ` I U I ( U { a a C.Z.Z.J.J.( %XJ.Z.( { u n I.<.8.:X0.0.6.q.q.&X&Xn ;.I.N.Y.V.D.8.T.4.z.0.8.D 4.;.T.U.A.V.",
", , i Z Z P f I M 6 d f % w a d d Z : q d e g g Z + a t a e I u y J r r F C y D y y K -.x n =.;.N u c q Y c F G D r x % F q q q ",
"L l.+XaX7X7XqXqXgX).7X'.O.w.{.c.b.[.j.'.x.f.b.f.f.l f.x.b.'.aXaXfXfXz.7.z.4.b ;.7.7.b.=XaX|.gXgXW.k.7.J E.k.b.z.=Xb.E.;.W.<.<.=.",
"O.v.6X0X3X^.0X3XuX0X0X0X....qX^.^.0X^./.`.d./.g.d.k ^.6X0X/.^.0X7X'.OXj.b.%.l +.%.*.x.v.qX).].).c.x.%.v b.c.j.v.b.b.c.t.{.x.{.$.",
"O.7Xv.OX6X6XyXwXwXeXmXeX....MX'.v.jX`.7XqX`.].'.d.j ].jXmX].f.6Xv.g.7X`.'.*.v u.).x.`.^.yX^././.`.].w.b qX7X'.'.p.p.p.d.'.f.qX..",
"H sX9.j.aX+XdX9XOXOX7XaXb l sXk.7.aXj.j.+Xj.j.l.k.5 k.b.+Xz.,.aXl.s.v.j.j...j c.c.t._.r.yXd.^.f.x.x.O.j v.v.s.j.p.&.p.v.6Xv.MXv ",
"T F.>XSX6.2XnX*XzX*X:X*XR Y A.T.E T.D.1XT.,XV.F.Y u S.*XT.>XD.T.Y.D.5.5.T.Y r -.A.N.>.y.,.k.,.k.7.#.H D q..Xq..X&XK zXoX0.oXz.x ",
"F G F 5.G G G K W D K R y r J Y c Y c c c F r c c 5 F c r Y u y i F q r c r 5 n N z q n 5 r x r D x q q D D C G G : K D D K K q ",
"l.2.H s.9.@.r 3.l.3.OX7Xg.g.6X7Xb.j.+.b *.$.*.j.b.,.j.%.O.,.O.x H 8.8.4.W.=XR.-XY.k.k.-Xx ;.<.7.2.p.3.3.9.9.4.q.q.q 3.9.9.9.OX3.",
"eXeXg.6XeXg.b jXjX8XeXBXBXyXpXyXjXf.p.v x.*.b.v.'.v.'.s.e.v.e.r b z.v.*.v.7Xv.'.v.*.v.R.8 b I.j.v.eX7X8XdX@XoX@Xl.i 9.@XeX6XeX7X",
"g.8XOXl.+Xj.5 b.aX@XoX7XeXwXwXwXdX;.#.5 7.#.k.7.#.7.,.#.#.7.,.8 $.qXqXd.0XpX4X4X4X(.wXeXj +.|.{./.5X0X5XeX8XOX8Xp.r a.eXyX4X5X4X",
"s.tX9Xl.z.k.5 8.lXsX=X;XcXrXwXcXfX0.8.r Y.R 8.;.;.8.R R ;.8.Y.H ..qX0Xd.(.4X(.(.4X3X0Xv.j O.<.k.`.uXuXwXmX9XOXdXOXr g.BXCX0XuX0X",
"tXtXcX;X&X&Xq T.T.*Xz.@XrX#XXXtX-X8.;.y A.R :.R ;.5.J :.;.5.T.J ..{.aXs.v.3Xa.h.#X9X+X0.y E M.S.k.'.z.z.=XY.0.D.5.: 4.Y.E.b.7X'.",
"@Xa.OXoXz.A.5 A.A.W.z..X9XXXa.XXY.5.R y V.R E R Y 5.;.D.D.5.A.c 8 <.7.#.p.3.1.1.1.9.4.Y % M V ' A.Y.k.5.F.G.V.V.V.@ W ;.:.4.E.k."
};
